{"glyphs":{":":{"x_min":0,"x_max":245,"ha":245,"o":"m 183 314 l 181 305 l 163 289 l 158 280 l 151 269 l 147 266 l 140 255 l 130 247 l 121 242 l 110 240 l 96 243 l 88 250 l 83 264 l 80 269 l 74 275 l 68 280 l 65 285 l 65 292 l 62 300 l 61 311 l 73 321 l 96 335 l 117 344 l 144 344 l 156 340 l 160 333 l 171 330 l 181 325 z m 183 40 l 181 30 l 163 14 l 158 5 l 151 -5 l 147 -9 l 140 -19 l 130 -27 l 121 -33 l 110 -34 l 96 -32 l 88 -25 l 83 -11 l 80 -5 l 68 5 l 65 11 l 65 18 l 62 26 l 61 36 l 73 47 l 96 60 l 117 70 l 144 70 l 156 65 l 160 58 l 171 56 l 181 50 z m 156 -38 l 151 -42 l 145 -34 l 150 -31 l 156 -33 z"},"$":{"x_min":0,"x_max":355,"ha":355,"o":"m 24 539 l 13 532 l 1 538 l 0 551 l 13 558 l 22 551 z m 324 217 l 322 199 l 317 177 l 308 155 l 295 134 l 283 117 l 269 104 l 257 95 l 242 86 l 245 77 l 240 62 l 243 44 l 239 26 l 241 10 l 239 -12 l 239 -43 l 233 -49 l 239 -57 l 246 -71 l 253 -81 l 255 -95 l 249 -99 l 243 -99 l 234 -92 l 227 -76 l 222 -53 l 220 -25 l 219 -2 l 220 26 l 219 42 l 217 58 l 210 72 l 196 75 l 185 74 l 175 74 l 165 66 l 167 50 l 166 30 l 164 13 l 165 -3 l 165 -18 l 163 -36 l 163 -55 l 160 -72 l 160 -99 l 163 -110 l 163 -116 l 155 -110 l 155 -103 l 152 -93 l 151 -76 l 151 -50 l 150 -25 l 151 -5 l 149 40 l 150 60 l 147 74 l 133 77 l 114 78 l 96 80 l 78 84 l 65 86 l 50 90 l 40 96 l 40 105 l 51 102 l 63 100 l 77 95 l 93 94 l 113 92 l 128 90 l 149 88 l 150 103 l 147 116 l 145 137 l 144 155 l 145 177 l 145 197 l 144 210 l 147 220 l 147 231 l 145 251 l 147 273 l 144 292 l 142 309 l 140 324 l 123 329 l 107 334 l 90 340 l 75 349 l 63 364 l 53 378 l 48 394 l 46 412 l 48 431 l 52 454 l 60 479 l 66 495 l 74 512 l 82 528 l 92 544 l 103 555 l 125 569 l 126 589 l 126 611 l 128 629 l 126 640 l 128 659 l 127 682 l 132 699 l 126 708 l 132 729 l 134 748 l 128 759 l 127 775 l 133 784 l 142 791 l 156 797 l 170 798 l 185 790 l 194 786 l 211 797 l 218 801 l 227 802 l 252 807 l 257 802 l 260 793 l 262 775 l 264 767 l 262 759 l 254 746 l 243 733 l 235 714 l 232 699 l 231 677 l 225 669 l 230 647 l 227 628 l 226 615 l 237 615 l 250 611 l 265 606 l 280 598 l 297 583 l 299 574 l 310 564 l 309 546 l 307 535 l 292 522 l 277 519 l 258 519 l 243 522 l 232 527 l 223 516 l 218 499 l 216 475 l 218 453 l 213 420 l 213 397 l 217 377 l 213 357 l 220 342 l 235 335 l 254 329 l 275 319 l 290 305 l 303 294 l 317 276 l 321 259 l 322 234 z m 192 634 l 186 667 l 187 712 l 174 693 l 170 640 l 166 612 l 166 597 l 177 604 l 189 610 z m 188 400 l 185 424 l 183 448 l 187 477 l 186 507 l 186 535 l 163 523 l 165 497 l 164 489 l 163 479 l 162 452 l 165 406 l 169 364 l 187 355 z m 136 371 l 135 394 l 133 415 l 130 435 l 126 490 l 114 456 l 106 437 l 104 423 l 107 404 l 105 390 l 121 378 z m 302 199 l 302 224 l 298 245 l 290 260 l 276 275 l 248 296 l 240 298 l 232 298 l 223 291 l 226 272 l 227 252 l 230 234 l 231 208 l 231 150 l 232 125 l 237 103 l 249 109 l 250 114 l 263 124 l 275 139 l 287 159 l 295 178 z m 211 93 l 204 114 l 204 133 l 202 155 l 202 169 l 199 178 l 199 195 l 198 223 l 200 241 l 199 258 l 195 271 l 198 297 l 186 307 l 177 317 l 171 314 l 172 305 l 170 292 l 166 277 l 168 256 l 167 235 l 171 211 l 170 186 l 166 174 l 164 156 l 167 135 l 165 97 l 166 88 l 200 88 z"},"?":{"x_min":0,"x_max":357,"ha":357,"o":"m 327 433 l 318 402 l 309 385 l 305 371 l 294 359 l 285 348 l 273 341 l 262 330 l 250 324 l 241 321 l 231 314 l 216 305 l 202 296 l 186 284 l 172 273 l 160 266 l 151 257 l 148 240 l 144 222 l 147 206 l 147 177 l 148 163 l 147 152 l 143 141 l 134 139 l 126 145 l 123 155 l 123 170 l 119 189 l 119 207 l 114 225 l 112 243 l 114 257 l 120 272 l 128 282 l 140 296 l 152 307 l 170 317 l 185 330 l 194 341 l 204 347 l 213 348 l 218 351 l 234 359 l 246 371 l 271 394 l 278 409 l 283 427 l 280 452 l 277 470 l 272 485 l 268 502 l 262 516 l 250 524 l 237 528 l 218 531 l 198 529 l 183 525 l 167 514 l 153 499 l 143 485 l 138 468 l 130 455 l 121 441 l 107 434 l 93 430 l 77 426 l 60 426 l 46 433 l 37 441 l 32 453 l 31 467 l 33 477 l 38 489 l 52 502 l 65 510 l 77 517 l 96 532 l 106 546 l 119 560 l 138 572 l 156 579 l 171 583 l 181 587 l 194 590 l 208 590 l 225 592 l 245 587 l 258 582 l 277 572 l 290 561 l 297 551 l 306 536 l 309 521 l 314 506 l 317 489 l 320 474 l 322 460 l 327 448 z m 152 96 l 144 92 l 138 97 l 143 101 l 149 101 z m 204 36 l 203 28 l 195 21 l 186 14 l 178 10 l 175 3 l 171 -6 l 165 -16 l 149 -30 l 137 -30 l 126 -27 l 119 -23 l 114 -9 l 115 -4 l 108 3 l 100 5 l 92 10 l 88 17 l 91 26 l 95 33 l 105 43 l 100 50 l 100 60 l 105 67 l 115 74 l 127 74 l 140 70 l 153 70 l 162 67 l 170 64 l 179 60 l 183 51 l 193 51 l 203 47 z"},"<":{"x_min":0,"x_max":452,"ha":452,"o":"m 408 269 l 404 254 l 385 240 l 346 232 l 319 222 l 300 217 l 279 211 l 263 208 l 248 203 l 230 198 l 211 194 l 191 185 l 175 179 l 159 177 l 145 176 l 144 170 l 174 155 l 200 145 l 206 141 l 229 131 l 243 123 l 255 123 l 268 115 l 280 110 l 291 101 l 303 96 l 312 86 l 318 79 l 318 72 l 312 67 l 303 68 l 292 74 l 279 82 l 268 90 l 261 90 l 252 95 l 237 100 l 222 106 l 205 113 l 191 118 l 178 123 l 160 129 l 141 136 l 122 138 l 104 143 l 90 145 l 79 148 l 71 145 l 60 145 l 51 146 l 42 152 l 35 160 l 33 170 l 37 182 l 43 187 l 54 193 l 70 196 l 84 197 l 99 203 l 111 208 l 127 215 l 144 220 l 159 228 l 176 233 l 238 253 l 259 261 l 291 265 l 302 271 l 314 280 l 326 286 l 340 291 l 352 300 l 363 307 l 372 308 l 385 307 l 397 298 l 403 285 z m 347 53 l 340 46 l 333 46 l 321 51 l 318 59 l 321 67 l 327 70 l 333 69 l 342 63 l 347 59 z"},"'":{"x_min":0,"x_max":171,"ha":171,"o":"m 120 675 l 115 671 l 114 657 l 107 639 l 105 628 l 102 625 l 102 613 l 98 606 l 98 599 l 93 588 l 92 572 l 89 561 l 91 545 l 91 532 l 87 514 l 87 499 l 83 486 l 84 480 l 83 471 l 87 456 l 80 442 l 75 438 l 68 438 l 61 447 l 58 459 l 58 475 l 57 498 l 58 512 l 57 535 l 54 549 l 54 565 l 50 569 l 50 596 l 46 617 l 46 637 l 45 656 l 39 669 l 36 680 l 31 696 l 33 711 l 42 723 l 52 729 l 70 730 l 83 727 l 95 723 l 98 717 l 105 711 l 115 699 l 120 687 z m 70 424 l 66 419 l 60 419 l 60 424 l 65 427 z"},"=":{"x_min":0,"x_max":368,"ha":368,"o":"m 348 277 l 336 268 l 325 282 l 335 290 l 344 283 z m 315 289 l 313 281 l 303 277 l 291 275 l 280 274 l 261 275 l 238 277 l 220 275 l 204 274 l 183 271 l 153 259 l 142 253 l 131 245 l 112 241 l 98 239 l 93 228 l 84 224 l 78 232 l 69 238 l 58 240 l 49 246 l 43 256 l 41 268 l 44 281 l 58 293 l 70 300 l 90 305 l 114 310 l 134 311 l 151 313 l 175 309 l 216 310 l 260 308 l 280 303 l 297 300 l 310 298 z m 337 158 l 331 155 l 313 152 l 292 152 l 280 156 l 269 155 l 250 156 l 227 158 l 209 156 l 193 155 l 172 152 l 140 150 l 128 146 l 116 140 l 82 140 l 74 124 l 59 120 l 48 140 l 43 148 l 36 156 l 31 167 l 31 179 l 37 191 l 52 200 l 66 205 l 84 214 l 111 207 l 130 205 l 148 204 l 249 189 l 269 184 l 286 181 l 299 179 l 314 175 l 324 171 l 333 164 z"},"a":{"x_min":0,"x_max":303,"ha":303,"o":"m 269 129 l 263 125 l 258 127 l 258 133 l 267 137 z m 272 42 l 271 35 l 264 28 l 257 28 l 249 36 l 245 49 l 239 59 l 235 73 l 231 77 l 225 74 l 217 69 l 208 58 l 194 50 l 185 41 l 170 33 l 153 27 l 138 22 l 125 18 l 115 14 l 105 17 l 91 19 l 74 26 l 59 35 l 50 47 l 43 60 l 42 81 l 42 95 l 45 111 l 54 127 l 63 142 l 75 153 l 88 162 l 105 165 l 120 167 l 137 171 l 152 180 l 171 190 l 180 194 l 190 197 l 194 207 l 186 221 l 177 234 l 157 252 l 137 258 l 121 259 l 115 258 l 105 258 l 93 252 l 82 245 l 69 243 l 54 243 l 37 239 l 22 239 l 10 245 l 1 254 l 0 266 l 3 277 l 13 289 l 24 303 l 37 314 l 52 322 l 68 335 l 83 342 l 111 347 l 135 349 l 152 344 l 166 337 l 181 332 l 198 321 l 207 312 l 216 298 l 222 280 l 227 262 l 234 239 l 240 221 l 241 206 l 240 187 l 245 165 l 248 142 l 257 102 l 262 87 l 267 73 l 271 56 z m 230 45 l 226 42 l 218 45 l 220 51 l 226 54 z m 204 146 l 200 152 l 186 156 l 174 155 l 163 150 l 151 146 l 138 139 l 126 137 l 115 132 l 106 125 l 100 116 l 93 105 l 91 95 l 87 86 l 87 74 l 92 64 l 105 60 l 119 60 l 135 64 l 142 72 l 152 74 l 175 90 l 186 97 l 194 110 l 202 120 l 203 134 z"},"L":{"x_min":0,"x_max":411,"ha":411,"o":"m 412 92 l 411 78 l 404 67 l 400 58 l 391 51 l 376 51 l 363 47 l 348 42 l 331 42 l 311 44 l 288 40 l 273 40 l 256 35 l 242 27 l 223 21 l 205 10 l 190 0 l 162 0 l 145 3 l 125 3 l 109 4 l 95 7 l 80 12 l 63 10 l 52 13 l 47 21 l 48 32 l 48 45 l 49 56 l 54 67 l 52 78 l 54 88 l 57 100 l 57 115 l 62 134 l 63 153 l 62 169 l 65 184 l 67 201 l 71 216 l 72 234 l 71 244 l 71 282 l 72 299 l 72 321 l 74 337 l 76 358 l 77 371 l 76 385 l 74 399 l 76 412 l 76 429 l 77 445 l 79 460 l 77 469 l 79 479 l 81 492 l 80 502 l 84 514 l 79 525 l 77 539 l 77 555 l 76 570 l 74 585 l 74 598 l 79 607 l 72 615 l 70 625 l 76 634 l 76 645 l 80 657 l 80 672 l 81 685 l 80 694 l 89 705 l 99 714 l 109 718 l 121 719 l 134 723 l 146 722 l 157 715 l 168 709 l 181 700 l 190 687 l 194 673 l 196 662 l 192 649 l 190 639 l 178 629 l 171 617 l 168 598 l 163 585 l 160 572 l 157 558 l 153 544 l 153 528 l 148 512 l 144 484 l 144 469 l 139 456 l 136 446 l 131 437 l 130 424 l 127 408 l 123 375 l 123 359 l 118 345 l 116 327 l 112 310 l 112 294 l 109 282 l 107 272 l 107 257 l 103 244 l 102 231 l 99 216 l 94 199 l 95 187 l 94 167 l 91 152 l 88 141 l 88 134 l 86 123 l 85 110 l 88 104 l 97 102 l 108 107 l 125 109 l 144 111 l 155 111 l 169 105 l 185 105 l 196 109 l 209 110 l 227 116 l 237 120 l 252 119 l 271 116 l 289 119 l 310 124 l 326 132 l 339 138 l 342 147 l 356 155 l 367 160 l 381 157 l 391 150 l 397 139 l 407 129 l 409 118 l 412 105 z m 340 253 l 337 247 l 331 249 l 326 258 l 333 266 l 340 261 z m 48 395 l 47 389 l 39 385 l 34 392 l 40 400 z"},"3":{"x_min":0,"x_max":439,"ha":439,"o":"m 388 642 l 387 634 l 380 627 l 365 611 l 352 599 l 340 592 l 324 577 l 309 565 l 292 553 l 278 537 l 271 528 l 260 522 l 250 509 l 235 493 l 218 477 l 204 461 l 193 447 l 181 433 l 174 419 l 163 405 l 162 399 l 167 397 l 185 387 l 197 388 l 213 389 l 223 385 l 234 384 l 246 378 l 254 373 l 264 371 l 271 366 l 290 359 l 300 344 l 308 334 l 320 324 l 324 312 l 333 305 l 336 288 l 340 279 l 347 257 l 354 238 l 359 222 l 359 204 l 355 185 l 347 163 l 343 145 l 332 123 l 327 108 l 315 88 l 303 85 l 300 74 l 283 62 l 267 52 l 254 42 l 232 33 l 211 21 l 189 14 l 174 11 l 163 11 l 149 12 l 140 15 l 126 19 l 115 21 l 103 29 l 92 39 l 83 48 l 78 58 l 78 63 l 83 67 l 91 66 l 100 65 l 107 60 l 125 35 l 133 28 l 151 26 l 171 29 l 183 30 l 194 37 l 212 49 l 231 58 l 241 66 l 263 88 l 285 127 l 294 146 l 300 164 l 306 183 l 309 210 l 306 228 l 305 252 l 292 277 l 273 284 l 256 287 l 243 296 l 230 304 l 212 312 l 190 314 l 163 319 l 149 321 l 140 319 l 126 321 l 107 324 l 98 330 l 92 333 l 87 339 l 82 347 l 80 355 l 87 369 l 91 374 l 98 379 l 112 382 l 129 396 l 144 416 l 149 431 l 165 453 l 180 471 l 194 490 l 207 500 l 208 505 l 245 540 l 250 550 l 263 558 l 277 574 l 292 590 l 306 602 l 317 614 l 322 625 l 320 629 l 314 629 l 295 627 l 272 620 l 257 614 l 241 613 l 226 605 l 198 602 l 180 595 l 160 590 l 152 582 l 133 576 l 121 573 l 111 574 l 97 573 l 88 574 l 65 577 l 42 579 l 23 583 l 8 587 l -6 592 l -18 605 l -27 619 l -31 628 l -28 642 l -18 652 l -3 660 l 20 662 l 45 662 l 54 665 l 68 666 l 93 669 l 115 665 l 142 670 l 170 673 l 185 673 l 204 669 l 222 669 l 232 670 l 273 670 l 300 673 l 322 674 l 340 673 l 355 674 l 373 674 l 385 670 l 388 656 z"},";":{"x_min":0,"x_max":245,"ha":245,"o":"m 183 314 l 181 305 l 163 289 l 158 280 l 151 269 l 147 266 l 140 255 l 130 247 l 121 242 l 110 240 l 96 243 l 88 250 l 83 264 l 80 269 l 74 275 l 68 280 l 65 285 l 65 292 l 62 300 l 61 311 l 73 321 l 96 335 l 117 344 l 144 344 l 156 340 l 160 333 l 171 330 l 181 325 z m 173 10 l 170 -6 l 167 -27 l 164 -43 l 156 -64 l 149 -80 l 142 -93 l 133 -106 l 126 -117 l 117 -129 l 110 -139 l 103 -150 l 91 -158 l 84 -163 l 77 -162 l 75 -158 l 76 -148 l 87 -139 l 95 -130 l 100 -117 l 113 -102 l 123 -85 l 132 -66 l 136 -53 l 137 -41 l 137 -19 l 132 -13 l 122 -19 l 113 -24 l 103 -27 l 91 -27 l 82 -23 l 76 -15 l 70 0 l 68 14 l 73 28 l 81 35 l 87 42 l 93 56 l 105 63 l 118 70 l 137 70 l 150 72 l 163 69 l 168 60 l 172 49 l 172 21 z"},"J":{"x_min":0,"x_max":391,"ha":391,"o":"m 482 669 l 466 668 l 451 669 l 429 672 l 404 672 l 378 669 l 351 662 l 324 661 l 294 658 l 269 660 l 250 655 l 243 639 l 240 619 l 239 591 l 241 563 l 248 537 l 253 508 l 255 481 l 258 453 l 258 417 l 263 399 l 263 343 l 267 327 l 263 311 l 264 289 l 260 264 l 263 243 l 257 231 l 257 208 l 253 165 l 245 154 l 243 136 l 237 118 l 234 103 l 222 80 l 209 53 l 197 30 l 189 24 l 177 5 l 162 -9 l 144 -25 l 117 -41 l 83 -52 l 60 -57 l 3 -57 l -17 -52 l -27 -48 l -32 -36 l -38 -21 l -38 -3 l -27 8 l -10 15 l 3 12 l 17 5 l 40 1 l 54 5 l 61 10 l 75 16 l 93 26 l 112 43 l 129 56 l 140 70 l 148 85 l 166 113 l 171 139 l 184 168 l 192 191 l 197 215 l 202 241 l 200 255 l 204 273 l 211 302 l 215 325 l 216 361 l 216 406 l 211 420 l 216 430 l 210 447 l 211 463 l 207 489 l 197 512 l 195 535 l 197 545 l 203 550 l 198 563 l 197 579 l 197 602 l 194 615 l 197 624 l 188 636 l 172 636 l 151 633 l 137 628 l 114 623 l 98 616 l 82 615 l 54 619 l 24 623 l 6 623 l -6 630 l -15 638 l -15 650 l -13 665 l 0 671 l 17 666 l 31 660 l 55 656 l 75 657 l 96 665 l 111 665 l 163 683 l 185 683 l 204 688 l 220 687 l 232 692 l 241 692 l 254 694 l 278 694 l 301 696 l 328 698 l 370 692 l 396 689 l 415 689 l 436 684 l 451 686 l 482 678 z m 6 -69 l 5 -78 l -5 -80 l -13 -75 l -8 -64 l 1 -64 z"},"V":{"x_min":0,"x_max":372,"ha":372,"o":"m 397 626 l 395 617 l 389 609 l 381 599 l 375 585 l 368 570 l 359 555 l 350 537 l 344 516 l 334 492 l 324 469 l 308 435 l 304 422 l 301 404 l 297 387 l 293 367 l 289 341 l 285 317 l 280 291 l 279 273 l 274 254 l 269 234 l 262 216 l 244 180 l 241 169 l 232 153 l 220 141 l 214 125 l 205 114 l 201 96 l 195 79 l 179 65 l 160 56 l 145 58 l 130 65 l 122 79 l 119 95 l 119 111 l 124 124 l 119 137 l 114 155 l 113 171 l 114 193 l 110 208 l 110 227 l 104 236 l 105 249 l 100 261 l 91 295 l 84 307 l 81 322 l 77 340 l 80 357 l 68 369 l 62 390 l 53 404 l 50 419 l 39 433 l 27 447 l 16 456 l 6 472 l -1 482 l 1 498 l 7 514 l 16 525 l 31 534 l 47 534 l 62 528 l 80 519 l 95 502 l 107 475 l 110 455 l 110 426 l 118 401 l 126 382 l 135 362 l 140 333 l 144 307 l 151 284 l 155 266 l 158 247 l 160 227 l 163 210 l 170 204 l 181 208 l 190 217 l 196 235 l 201 249 l 207 262 l 214 280 l 220 290 l 223 307 l 232 328 l 239 347 l 246 364 l 250 377 l 256 389 l 255 404 l 262 417 l 261 429 l 274 438 l 280 460 l 290 477 l 299 497 l 307 512 l 315 525 l 324 542 l 336 558 l 335 570 l 345 590 l 347 606 l 352 615 l 361 621 l 367 634 l 375 640 l 385 641 l 394 635 z"},"\"":{"x_min":0,"x_max":277,"ha":277,"o":"m 198 627 l 196 622 l 196 609 l 197 588 l 196 569 l 196 545 l 193 528 l 190 509 l 188 493 l 186 474 l 187 454 l 186 435 l 188 416 l 190 405 l 190 387 l 188 381 l 187 377 l 185 373 l 181 369 l 177 366 l 172 369 l 167 373 l 165 387 l 162 399 l 158 412 l 153 426 l 151 439 l 153 447 l 149 463 l 147 479 l 144 500 l 140 525 l 135 549 l 130 567 l 129 577 l 127 587 l 121 596 l 119 598 l 114 599 l 110 598 l 108 595 l 108 582 l 107 576 l 104 562 l 103 546 l 100 529 l 98 513 l 95 487 l 93 467 l 92 445 l 92 426 l 93 410 l 93 395 l 91 381 l 87 378 l 80 377 l 73 380 l 63 408 l 61 431 l 61 450 l 58 469 l 57 486 l 59 506 l 57 523 l 59 551 l 61 572 l 61 596 l 59 617 l 55 634 l 52 651 l 45 662 l 43 675 l 43 692 l 47 703 l 53 714 l 66 726 l 77 727 l 92 722 l 104 716 l 112 707 l 114 701 l 123 697 l 153 697 l 166 692 l 178 688 l 185 678 l 195 664 l 198 645 z m 43 437 l 36 433 l 31 438 l 36 442 l 43 442 z m 164 274 l 159 270 l 151 273 l 150 277 l 158 284 l 164 280 z"},"7":{"x_min":0,"x_max":423,"ha":423,"o":"m 390 597 l 387 594 l 387 588 l 380 584 l 369 574 l 355 558 l 338 544 l 324 532 l 314 519 l 301 509 l 300 498 l 285 483 l 267 447 l 264 437 l 255 416 l 246 390 l 238 372 l 230 357 l 225 349 l 222 335 l 215 316 l 205 297 l 198 273 l 188 247 l 184 228 l 176 195 l 168 170 l 160 140 l 156 127 l 148 103 l 140 78 l 131 56 l 122 39 l 116 29 l 106 28 l 107 35 l 111 45 l 134 123 l 140 150 l 149 179 l 153 202 l 160 224 l 167 252 l 186 309 l 193 335 l 203 362 l 213 385 l 220 403 l 227 423 l 235 447 l 246 475 l 262 501 l 269 515 l 280 529 l 292 546 l 297 558 l 295 566 l 277 566 l 255 562 l 235 566 l 211 567 l 185 569 l 158 566 l 129 561 l 103 557 l 87 553 l 73 557 l 60 557 l 47 562 l 28 566 l 10 575 l -3 589 l -13 603 l -13 609 l -15 617 l -14 629 l -9 635 l -3 639 l 9 645 l 27 645 l 40 644 l 54 640 l 69 630 l 103 621 l 128 620 l 152 622 l 227 622 l 253 626 l 273 627 l 285 627 l 294 629 l 318 627 l 345 625 l 360 621 l 377 622 l 383 618 l 385 612 l 390 599 z"},"S":{"x_min":0,"x_max":335,"ha":335,"o":"m 293 497 l 292 486 l 279 483 l 270 484 l 260 493 l 269 501 l 283 502 z m 289 519 l 280 507 l 267 507 l 252 512 l 238 519 l 223 530 l 220 539 l 202 543 l 192 547 l 172 544 l 155 544 l 137 543 l 113 534 l 95 524 l 67 498 l 61 484 l 52 464 l 54 441 l 62 422 l 70 410 l 95 392 l 110 380 l 127 369 l 140 357 l 156 345 l 188 326 l 204 312 l 216 299 l 227 291 l 230 280 l 246 254 l 253 238 l 257 220 l 264 201 l 270 183 l 271 157 l 267 137 l 256 114 l 250 95 l 238 82 l 232 70 l 218 55 l 205 45 l 184 37 l 156 32 l 136 28 l 114 32 l 98 33 l 84 36 l 73 42 l 66 42 l 62 47 l 64 58 l 68 64 l 75 64 l 75 58 l 77 54 l 84 50 l 98 44 l 130 42 l 140 45 l 156 44 l 177 50 l 196 58 l 219 74 l 223 86 l 233 102 l 239 119 l 246 132 l 247 147 l 252 169 l 248 183 l 244 202 l 234 217 l 229 235 l 220 252 l 214 268 l 202 275 l 193 285 l 179 295 l 167 307 l 145 317 l 132 330 l 117 333 l 103 345 l 85 358 l 75 366 l 57 371 l 40 386 l 25 404 l 16 422 l 7 441 l 7 479 l 15 500 l 25 520 l 36 537 l 49 551 l 61 562 l 76 574 l 94 583 l 110 589 l 133 590 l 155 592 l 177 597 l 196 607 l 216 613 l 225 620 l 244 617 l 255 607 l 261 589 l 269 579 l 279 569 l 285 553 l 287 538 z"},"}":{"x_min":0,"x_max":346,"ha":346,"o":"m 257 601 l 249 594 l 239 594 l 241 607 l 249 611 l 256 610 z m 290 357 l 289 345 l 282 340 l 275 343 l 270 338 l 259 335 l 251 331 l 241 331 l 225 335 l 206 341 l 205 329 l 213 307 l 221 289 l 225 266 l 236 248 l 235 235 l 242 215 l 250 186 l 254 175 l 249 162 l 253 145 l 254 127 l 257 113 l 253 87 l 251 56 l 248 30 l 242 21 l 237 -1 l 228 -20 l 216 -43 l 196 -71 l 167 -98 l 147 -112 l 120 -126 l 92 -142 l 71 -148 l 61 -149 l 52 -141 l 41 -131 l 35 -116 l 42 -101 l 55 -86 l 69 -82 l 84 -81 l 108 -72 l 120 -62 l 125 -55 l 136 -43 l 150 -25 l 162 0 l 173 19 l 178 38 l 182 55 l 189 88 l 185 112 l 187 168 l 183 191 l 179 217 l 173 228 l 170 245 l 166 273 l 162 295 l 166 326 l 177 332 l 191 333 l 201 340 l 204 348 l 193 357 l 171 377 l 162 405 l 148 408 l 140 418 l 133 432 l 130 455 l 126 474 l 126 494 l 127 519 l 123 530 l 127 539 l 126 556 l 118 573 l 115 592 l 111 601 l 112 610 l 110 621 l 110 636 l 113 648 l 113 657 l 102 664 l 89 667 l 75 669 l 64 669 l 56 674 l 55 682 l 56 694 l 61 702 l 74 706 l 86 710 l 102 712 l 118 715 l 153 715 l 170 712 l 186 711 l 200 701 l 212 685 l 218 672 l 220 652 l 216 639 l 210 626 l 205 607 l 202 584 l 200 565 l 200 539 l 196 515 l 201 497 l 202 474 l 202 449 l 203 427 l 202 403 l 208 390 l 208 376 l 212 367 l 222 369 l 231 365 l 250 365 l 263 366 l 282 366 l 285 362 z m 31 -151 l 23 -158 l 13 -158 l 15 -145 l 23 -141 l 30 -142 z"},"Z":{"x_min":0,"x_max":499,"ha":499,"o":"m 523 530 l 521 516 l 511 506 l 502 501 l 487 501 l 475 506 l 461 514 l 449 516 l 433 521 l 415 520 l 398 516 l 378 514 l 360 514 l 342 510 l 327 505 l 305 498 l 296 491 l 282 491 l 263 483 l 250 482 l 236 474 l 224 472 l 206 464 l 185 461 l 165 460 l 118 460 l 96 463 l 73 472 l 64 484 l 59 497 l 55 507 l 55 519 l 58 528 l 64 542 l 72 551 l 83 557 l 102 567 l 125 572 l 146 570 l 173 569 l 196 570 l 220 572 l 235 569 l 256 574 l 280 576 l 298 580 l 353 580 l 379 579 l 408 576 l 461 566 l 478 562 l 491 560 l 502 560 l 514 553 l 520 543 z m 488 18 l 486 10 l 472 9 l 438 17 l 418 19 l 401 17 l 379 21 l 355 22 l 333 22 l 305 21 l 276 21 l 256 19 l 236 19 l 221 18 l 207 21 l 183 19 l 161 18 l 146 18 l 124 14 l 109 10 l 93 9 l 78 13 l 53 10 l 33 10 l 16 17 l 8 28 l 4 41 l 0 56 l -2 72 l 3 86 l 12 96 l 27 109 l 41 118 l 64 127 l 79 141 l 90 152 l 110 165 l 120 175 l 139 189 l 146 201 l 160 208 l 173 221 l 201 247 l 202 254 l 208 258 l 215 267 l 225 276 l 236 289 l 245 299 l 254 303 l 262 313 l 277 324 l 290 336 l 307 354 l 326 375 l 342 390 l 356 401 l 364 414 l 381 426 l 388 442 l 398 456 l 413 465 l 427 470 l 438 483 l 449 492 l 464 497 l 477 493 l 481 483 l 477 474 l 464 465 l 449 461 l 436 452 l 423 441 l 413 432 l 409 419 l 398 405 l 381 386 l 365 378 l 346 359 l 328 344 l 318 333 l 289 304 l 270 290 l 253 277 l 244 266 l 231 258 l 224 249 l 211 238 l 201 225 l 188 216 l 179 204 l 165 192 l 148 178 l 136 167 l 123 153 l 105 138 l 96 120 l 81 110 l 73 93 l 64 77 l 51 65 l 46 56 l 51 50 l 65 41 l 79 35 l 91 33 l 102 45 l 123 51 l 150 56 l 165 54 l 224 54 l 244 56 l 268 55 l 286 55 l 308 54 l 331 51 l 358 51 l 379 49 l 398 44 l 417 42 l 433 37 l 450 33 l 465 27 l 479 22 z"},"x":{"x_min":0,"x_max":317,"ha":317,"o":"m 301 -17 l 299 -23 l 293 -28 l 283 -28 l 275 -23 l 268 -14 l 264 -5 l 253 5 l 247 14 l 237 23 l 226 35 l 219 44 l 198 67 l 192 80 l 189 92 l 188 104 l 188 108 l 179 114 l 168 118 l 160 130 l 150 129 l 140 122 l 136 111 l 136 104 l 130 100 l 127 92 l 117 85 l 107 76 l 100 66 l 95 55 l 88 46 l 80 35 l 72 28 l 68 18 l 65 14 l 58 7 l 52 -2 l 44 -10 l 36 -16 l 25 -17 l 18 -10 l 17 -4 l 18 5 l 23 14 l 30 21 l 38 28 l 44 37 l 52 45 l 60 55 l 66 69 l 73 80 l 82 90 l 87 99 l 95 111 l 106 120 l 114 131 l 122 138 l 130 155 l 119 175 l 104 195 l 89 210 l 84 218 l 74 228 l 66 242 l 59 253 l 57 261 l 50 268 l 44 277 l 29 294 l 20 302 l 16 308 l 17 318 l 24 326 l 32 326 l 44 323 l 51 318 l 58 308 l 60 299 l 67 288 l 73 277 l 77 268 l 82 257 l 98 232 l 110 228 l 119 212 l 131 195 l 148 183 l 153 197 l 162 210 l 165 219 l 171 231 l 178 240 l 186 251 l 193 264 l 198 275 l 204 286 l 204 298 l 210 307 l 213 316 l 219 321 l 227 330 l 238 337 l 252 341 l 264 341 l 275 339 l 285 332 l 295 314 l 294 307 l 293 299 l 287 291 l 279 285 l 271 277 l 262 266 l 254 260 l 245 250 l 237 243 l 227 231 l 218 219 l 207 195 l 200 183 l 188 175 l 182 164 l 173 155 l 179 149 l 188 136 l 195 125 l 209 111 l 212 97 l 218 92 l 224 83 l 230 73 l 240 60 l 248 51 l 257 39 l 264 30 l 273 21 l 282 14 l 288 7 l 295 0 l 300 -9 z m 69 129 l 66 123 l 55 120 l 54 130 l 63 137 z"},")":{"x_min":0,"x_max":400,"ha":400,"o":"m 303 394 l 300 377 l 300 355 l 297 333 l 296 318 l 296 299 l 292 279 l 290 262 l 284 247 l 282 235 l 280 222 l 273 208 l 272 193 l 265 179 l 262 161 l 254 145 l 247 123 l 242 105 l 235 81 l 230 60 l 223 41 l 208 22 l 201 4 l 192 -8 l 175 -26 l 161 -36 l 150 -49 l 141 -63 l 137 -83 l 130 -95 l 125 -110 l 116 -121 l 100 -130 l 86 -132 l 63 -131 l 47 -125 l 35 -118 l 22 -110 l 15 -100 l 7 -90 l 7 -77 l 19 -71 l 19 -58 l 30 -48 l 44 -34 l 60 -24 l 79 -13 l 88 -6 l 98 0 l 105 11 l 118 22 l 127 27 l 130 36 l 137 42 l 143 56 l 157 74 l 167 89 l 179 105 l 185 123 l 195 137 l 203 157 l 208 174 l 216 189 l 223 195 l 228 212 l 233 227 l 242 246 l 248 264 l 252 283 l 258 303 l 262 322 l 266 343 l 268 360 l 273 386 l 274 406 l 274 429 l 275 448 l 275 487 l 274 507 l 273 517 l 270 534 l 269 552 l 267 566 l 262 589 l 259 608 l 254 625 l 245 645 l 241 661 l 232 673 l 223 696 l 217 707 l 209 714 l 201 733 l 189 748 l 183 756 l 160 785 l 154 796 l 139 808 l 127 818 l 122 825 l 110 834 l 106 842 l 117 846 l 124 842 l 133 833 l 146 826 l 150 814 l 163 806 l 173 794 l 186 783 l 193 769 l 205 755 l 213 738 l 227 726 l 234 709 l 242 691 l 251 678 l 257 663 l 262 647 l 269 634 l 272 621 l 277 603 l 280 589 l 283 572 l 289 554 l 293 525 l 293 505 l 298 484 l 300 463 l 300 446 l 303 432 l 300 414 z"},"&":{"x_min":0,"x_max":525,"ha":525,"o":"m 82 629 l 80 619 l 74 614 l 65 616 l 55 620 l 54 626 l 57 633 l 50 631 l 43 631 l 37 633 l 31 641 l 31 650 l 40 653 l 51 652 l 57 644 l 60 636 l 70 637 l 78 634 z m 280 413 l 277 407 l 267 404 l 262 410 l 262 416 l 268 421 l 276 420 z m 494 342 l 489 333 l 482 328 l 464 328 l 451 326 l 436 328 l 400 328 l 383 326 l 369 323 l 361 316 l 355 305 l 354 289 l 352 273 l 352 256 l 354 239 l 355 222 l 357 208 l 360 192 l 363 175 l 363 159 l 369 144 l 374 130 l 378 114 l 380 97 l 383 77 l 391 39 l 395 22 l 400 10 l 400 2 l 406 -3 l 414 -15 l 415 -21 l 420 -24 l 422 -36 l 427 -44 l 428 -52 l 425 -58 l 419 -59 l 413 -59 l 406 -54 l 397 -40 l 388 -29 l 378 -16 l 368 -7 l 340 17 l 331 26 l 322 33 l 314 27 l 313 22 l 301 11 l 283 0 l 253 -10 l 237 -11 l 209 -11 l 195 -12 l 188 -8 l 166 -4 l 147 4 l 128 13 l 112 22 l 97 33 l 80 44 l 63 58 l 52 72 l 45 85 l 38 100 l 36 113 l 37 130 l 40 146 l 42 164 l 46 179 l 47 195 l 52 205 l 60 214 l 65 229 l 70 239 l 74 251 l 77 259 l 84 268 l 93 279 l 102 288 l 112 300 l 123 310 l 134 321 l 143 332 l 149 341 l 152 346 l 153 353 l 148 355 l 137 361 l 123 364 l 114 374 l 105 382 l 97 392 l 89 407 l 87 424 l 84 441 l 88 457 l 89 474 l 92 490 l 93 506 l 97 523 l 103 539 l 110 553 l 114 565 l 115 571 l 115 578 l 111 590 l 106 599 l 103 611 l 105 623 l 114 631 l 126 632 l 138 632 l 147 634 l 158 636 l 180 658 l 190 666 l 203 673 l 218 677 l 231 678 l 246 677 l 264 673 l 280 668 l 297 664 l 314 653 l 329 648 l 336 640 l 345 637 l 357 626 l 366 616 l 377 606 l 387 591 l 388 577 l 391 562 l 391 545 l 387 536 l 375 528 l 363 524 l 350 521 l 336 524 l 329 528 l 317 532 l 308 540 l 300 553 l 300 562 l 303 572 l 295 582 l 283 590 l 267 594 l 248 593 l 231 590 l 222 583 l 212 575 l 204 565 l 194 556 l 181 537 l 170 523 l 162 508 l 157 491 l 149 475 l 147 463 l 142 457 l 143 448 l 140 432 l 147 416 l 158 403 l 171 394 l 185 387 l 198 382 l 218 377 l 243 375 l 260 378 l 272 386 l 286 398 l 303 415 l 303 421 l 309 428 l 314 432 l 322 436 l 337 437 l 354 436 l 369 431 l 378 425 l 388 415 l 392 404 l 395 400 l 392 391 l 388 382 l 390 375 l 397 371 l 411 367 l 434 366 l 451 364 l 462 364 l 465 369 l 471 369 l 475 361 l 483 356 l 492 349 z m 375 -44 l 369 -49 l 361 -43 l 368 -35 l 375 -39 z m 314 42 l 314 52 l 313 69 l 310 86 l 308 100 l 301 114 l 300 127 l 299 148 l 299 166 l 295 185 l 294 202 l 290 219 l 287 234 l 287 247 l 283 259 l 282 274 l 280 292 l 280 306 l 273 317 l 267 329 l 257 336 l 241 336 l 223 332 l 209 328 l 200 320 l 186 312 l 172 302 l 160 289 l 148 280 l 138 273 l 120 247 l 111 241 l 110 233 l 96 211 l 88 197 l 84 185 l 77 176 l 74 159 l 70 146 l 68 113 l 73 104 l 74 92 l 80 80 l 91 67 l 105 56 l 115 46 l 128 36 l 144 23 l 163 15 l 179 9 l 193 6 l 209 3 l 237 3 l 257 5 l 276 11 l 291 19 l 303 30 z"},"_":{"x_min":0,"x_max":500,"ha":500,"o":"m 507 -140 l 506 -148 l 504 -160 l 500 -167 l 485 -174 l 435 -181 l 317 -189 l 243 -191 l 191 -187 l 119 -193 l 83 -191 l 34 -193 l 12 -189 l 0 -183 l -5 -172 l -6 -155 l -4 -142 l 0 -133 l 23 -127 l 56 -128 l 129 -127 l 287 -131 l 467 -132 l 488 -129 l 500 -133 z"},"v":{"x_min":0,"x_max":262,"ha":262,"o":"m 262 303 l 257 291 l 249 284 l 240 273 l 234 262 l 226 249 l 218 238 l 218 231 l 213 222 l 208 207 l 202 192 l 195 175 l 190 161 l 185 148 l 179 130 l 172 111 l 170 92 l 165 74 l 163 60 l 160 49 l 163 41 l 163 30 l 162 21 l 156 12 l 148 5 l 138 3 l 126 7 l 121 13 l 115 24 l 112 40 l 111 54 l 105 69 l 100 81 l 93 97 l 88 114 l 80 129 l 75 146 l 55 208 l 47 229 l 43 261 l 37 272 l 28 284 l 22 296 l 17 310 l 8 322 l 1 333 l 0 342 l 1 355 l 10 367 l 23 373 l 42 372 l 59 369 l 74 363 l 88 354 l 98 342 l 110 330 l 129 320 l 135 310 l 136 296 l 140 283 l 138 274 l 132 266 l 130 255 l 132 240 l 132 227 l 136 213 l 138 197 l 141 183 l 143 167 l 144 153 l 138 142 l 138 134 l 142 127 l 147 132 l 153 144 l 163 170 l 167 176 l 177 199 l 185 213 l 185 225 l 193 238 l 198 250 l 207 261 l 212 273 l 222 282 l 230 291 l 239 303 l 245 312 l 249 317 l 255 317 l 262 310 z"},"O":{"x_min":0,"x_max":464,"ha":464,"o":"m 213 575 l 204 568 l 201 575 l 204 585 l 213 583 z m 429 275 l 422 229 l 404 182 l 391 155 l 379 138 l 363 118 l 344 99 l 322 87 l 289 77 l 254 72 l 220 76 l 190 82 l 166 95 l 121 122 l 95 147 l 82 161 l 65 182 l 54 209 l 47 236 l 43 264 l 47 285 l 42 312 l 36 332 l 43 356 l 43 368 l 50 376 l 50 395 l 56 407 l 67 420 l 74 446 l 88 469 l 103 486 l 114 505 l 127 507 l 142 519 l 153 524 l 167 531 l 181 542 l 197 548 l 212 563 l 226 580 l 231 585 l 243 591 l 262 587 l 280 575 l 295 558 l 301 532 l 298 514 l 279 495 l 254 484 l 220 482 l 198 452 l 184 422 l 168 400 l 154 362 l 150 324 l 142 290 l 156 255 l 160 221 l 178 200 l 196 160 l 209 157 l 216 150 l 232 146 l 254 143 l 280 150 l 305 158 l 321 171 l 322 206 l 333 213 l 332 241 l 339 260 l 342 280 l 348 297 l 344 314 l 342 340 l 332 358 l 319 367 l 309 387 l 292 410 l 295 429 l 301 446 l 312 453 l 328 453 l 349 440 l 369 429 l 379 410 l 392 398 l 396 378 l 404 358 l 410 342 l 421 326 l 424 300 z m 52 426 l 44 420 l 36 416 l 35 426 l 40 436 l 49 436 z"},"(":{"x_min":0,"x_max":400,"ha":400,"o":"m 400 791 l 388 785 l 388 772 l 377 762 l 363 748 l 347 738 l 328 727 l 319 720 l 309 714 l 302 703 l 289 692 l 280 687 l 277 678 l 270 672 l 264 658 l 250 640 l 240 625 l 228 609 l 222 591 l 212 577 l 204 557 l 199 540 l 191 525 l 184 519 l 179 502 l 174 487 l 165 468 l 159 450 l 155 431 l 149 411 l 145 392 l 141 371 l 139 354 l 134 328 l 133 308 l 133 285 l 132 266 l 132 227 l 133 207 l 134 197 l 137 180 l 138 162 l 140 148 l 145 125 l 148 106 l 153 89 l 162 69 l 166 53 l 175 41 l 184 18 l 190 7 l 198 0 l 206 -19 l 218 -34 l 224 -42 l 247 -71 l 253 -82 l 268 -94 l 280 -104 l 285 -111 l 297 -120 l 301 -128 l 290 -132 l 283 -128 l 274 -119 l 261 -112 l 257 -100 l 244 -92 l 234 -80 l 221 -69 l 214 -55 l 202 -41 l 194 -24 l 180 -12 l 173 5 l 165 23 l 156 36 l 150 51 l 145 67 l 138 80 l 135 93 l 130 111 l 127 125 l 124 142 l 118 160 l 114 189 l 114 209 l 109 230 l 107 251 l 107 268 l 104 282 l 107 300 l 104 320 l 107 337 l 107 359 l 110 381 l 111 396 l 111 415 l 115 435 l 117 452 l 123 467 l 125 479 l 127 492 l 134 506 l 135 521 l 142 535 l 145 553 l 153 569 l 160 591 l 165 609 l 172 633 l 177 654 l 184 673 l 199 692 l 206 710 l 215 722 l 232 740 l 246 750 l 257 763 l 266 777 l 270 797 l 277 809 l 282 824 l 291 835 l 307 844 l 321 846 l 344 845 l 360 839 l 372 832 l 385 824 l 392 814 l 400 804 z"},"C":{"x_min":0,"x_max":523,"ha":523,"o":"m 492 238 l 484 215 l 483 200 l 466 162 l 452 135 l 444 123 l 431 104 l 415 89 l 402 72 l 379 58 l 336 49 l 317 47 l 296 51 l 250 56 l 236 64 l 215 73 l 181 95 l 147 118 l 121 146 l 102 157 l 91 176 l 70 195 l 56 224 l 42 252 l 36 282 l 36 322 l 35 369 l 41 405 l 51 438 l 66 469 l 67 500 l 76 531 l 87 545 l 93 555 l 109 565 l 132 579 l 153 585 l 183 590 l 220 605 l 250 615 l 266 627 l 296 625 l 328 622 l 348 607 l 363 604 l 385 582 l 406 545 l 407 532 l 392 530 l 386 510 l 362 501 l 342 514 l 313 516 l 289 529 l 262 532 l 237 524 l 204 516 l 177 505 l 160 491 l 147 472 l 134 449 l 121 412 l 112 369 l 110 347 l 109 319 l 114 285 l 116 251 l 129 221 l 142 199 l 185 149 l 211 132 l 228 123 l 277 118 l 320 130 l 356 142 l 379 165 l 395 190 l 421 221 l 436 227 l 453 231 l 466 252 l 478 260 l 492 257 z"},"W":{"x_min":0,"x_max":598,"ha":598,"o":"m 558 611 l 554 605 l 548 610 l 545 618 l 553 624 l 558 618 z m 591 590 l 590 576 l 587 565 l 587 553 l 583 545 l 577 531 l 572 512 l 563 491 l 563 479 l 554 448 l 542 424 l 545 412 l 540 396 l 537 380 l 532 369 l 531 351 l 527 329 l 527 315 l 518 296 l 513 270 l 512 247 l 508 228 l 503 210 l 495 191 l 484 169 l 479 150 l 472 134 l 470 123 l 462 117 l 452 95 l 439 88 l 434 75 l 424 66 l 407 57 l 386 56 l 367 60 l 357 70 l 351 80 l 340 90 l 330 107 l 317 125 l 306 145 l 296 160 l 292 183 l 278 206 l 275 224 l 266 237 l 266 260 l 263 277 l 257 279 l 250 291 l 240 291 l 231 280 l 223 260 l 217 237 l 210 220 l 200 195 l 180 148 l 176 132 l 168 114 l 160 99 l 143 84 l 135 66 l 126 54 l 118 43 l 111 33 l 102 30 l 93 30 l 85 40 l 83 54 l 81 70 l 85 89 l 83 111 l 83 127 l 85 148 l 81 169 l 81 190 l 79 210 l 74 231 l 74 251 l 70 260 l 71 274 l 66 296 l 63 317 l 62 337 l 57 360 l 52 379 l 51 389 l 49 405 l 43 420 l 42 435 l 37 449 l 28 462 l 28 475 l 29 484 l 38 491 l 43 499 l 53 502 l 74 499 l 80 489 l 88 477 l 93 463 l 89 448 l 85 426 l 90 408 l 93 396 l 93 382 l 94 362 l 94 343 l 95 328 l 95 311 l 98 291 l 100 266 l 102 246 l 107 227 l 107 206 l 108 185 l 111 163 l 109 145 l 108 126 l 108 111 l 107 103 l 111 95 l 118 97 l 126 108 l 134 118 l 143 139 l 155 160 l 167 183 l 171 197 l 178 214 l 186 231 l 199 251 l 199 268 l 206 280 l 215 303 l 222 324 l 223 337 l 231 356 l 238 379 l 246 399 l 252 410 l 259 416 l 269 416 l 277 410 l 284 394 l 305 373 l 307 356 l 310 335 l 314 314 l 320 296 l 328 282 l 335 264 l 342 250 l 351 229 l 358 215 l 371 182 l 379 169 l 381 162 l 389 159 l 394 164 l 394 178 l 393 187 l 394 197 l 407 214 l 420 234 l 426 257 l 430 287 l 431 311 l 433 333 l 442 348 l 452 357 l 465 369 l 468 382 l 461 402 l 462 419 l 462 440 l 467 463 l 471 476 l 480 485 l 494 493 l 502 502 l 508 521 l 517 542 l 528 562 l 537 576 l 546 587 l 562 605 l 574 605 l 585 602 z"},"A":{"x_min":0,"x_max":503,"ha":503,"o":"m 480 277 l 479 273 l 475 271 l 472 271 l 472 274 l 473 278 l 475 279 z m 488 -11 l 484 -16 l 476 -19 l 473 -14 l 468 -7 l 461 7 l 451 20 l 437 45 l 427 69 l 423 86 l 416 95 l 404 130 l 394 142 l 386 160 l 375 178 l 366 186 l 345 209 l 341 222 l 324 234 l 303 238 l 281 235 l 258 231 l 241 224 l 223 208 l 206 199 l 202 191 l 189 181 l 161 165 l 156 159 l 152 137 l 152 123 l 145 115 l 145 98 l 142 80 l 145 51 l 142 31 l 136 10 l 127 -7 l 116 -20 l 98 -36 l 81 -39 l 65 -41 l 60 -37 l 51 -37 l 44 -29 l 39 -25 l 39 -15 l 34 -8 l 34 12 l 39 25 l 38 36 l 41 43 l 47 46 l 47 55 l 56 60 l 60 69 l 66 81 l 74 85 l 82 103 l 85 123 l 90 126 l 88 139 l 92 159 l 92 172 l 83 191 l 77 208 l 75 227 l 74 240 l 77 244 l 75 251 l 75 255 l 90 273 l 90 279 l 98 288 l 109 305 l 122 324 l 125 338 l 126 348 l 125 356 l 130 381 l 134 405 l 142 435 l 144 452 l 148 460 l 147 486 l 145 509 l 147 531 l 155 549 l 162 563 l 171 570 l 174 583 l 180 592 l 183 600 l 180 606 l 182 619 l 175 635 l 177 651 l 171 658 l 174 671 l 180 671 l 191 679 l 197 680 l 201 688 l 217 690 l 230 684 l 241 667 l 246 664 l 254 649 l 263 631 l 267 614 l 276 594 l 287 579 l 288 571 l 296 562 l 301 552 l 310 539 l 309 527 l 318 509 l 319 501 l 324 491 l 329 474 l 337 460 l 340 436 l 344 419 l 350 395 l 350 386 l 355 373 l 362 350 l 368 329 l 370 312 l 375 300 l 388 291 l 404 286 l 423 287 l 441 287 l 459 283 l 462 278 l 466 273 l 462 270 l 459 265 l 451 257 l 441 256 l 437 251 l 422 248 l 405 240 l 398 234 l 398 222 l 401 208 l 407 194 l 415 180 l 422 160 l 427 148 l 433 129 l 440 112 l 450 91 l 457 73 l 461 46 l 466 43 l 472 29 l 479 15 l 479 7 l 484 2 z m 489 -47 q 488 -48 484 -49 l 481 -48 l 480 -45 l 483 -42 l 488 -43 z m 96 321 l 95 316 l 91 313 l 85 317 l 85 322 l 90 327 l 95 329 l 96 326 z m 34 75 l 30 73 l 25 75 l 25 80 l 28 82 l 33 81 l 34 78 z m 52 -55 l 51 -59 l 44 -58 l 41 -51 l 46 -50 l 52 -50 z m 305 305 l 301 316 l 291 334 l 289 351 l 284 359 l 281 369 l 275 379 l 276 405 l 263 422 l 267 429 l 262 441 l 256 476 l 248 492 l 247 505 l 236 519 l 232 527 l 222 548 l 202 528 l 204 515 l 197 504 l 197 492 l 195 486 l 191 466 l 189 448 l 189 443 l 184 436 l 184 422 l 182 394 l 182 381 l 177 369 l 180 357 l 175 342 l 183 330 l 206 320 l 230 311 l 250 300 l 261 292 l 281 288 l 294 291 l 298 294 z m 258 303 l 252 302 l 247 305 l 248 309 l 253 309 l 256 311 l 258 308 z"},"f":{"x_min":0,"x_max":211,"ha":211,"o":"m 241 615 l 237 606 l 218 595 l 198 595 l 183 594 l 171 590 l 158 583 l 144 572 l 135 560 l 133 547 l 125 532 l 120 514 l 115 495 l 112 475 l 111 452 l 106 435 l 108 417 l 108 380 l 110 366 l 111 358 l 119 350 l 130 345 l 151 344 l 158 340 l 170 342 l 185 340 l 202 340 l 220 332 l 227 327 l 237 321 l 231 317 l 189 304 l 174 304 l 148 296 l 135 295 l 115 282 l 112 276 l 112 239 l 111 213 l 112 198 l 111 183 l 111 144 l 110 127 l 106 111 l 106 96 l 105 77 l 103 58 l 100 33 l 91 13 l 87 -6 l 80 -27 l 77 -46 l 77 -61 l 75 -76 l 75 -93 l 74 -111 l 77 -125 l 70 -135 l 61 -138 l 55 -129 l 55 -111 l 59 -78 l 60 -56 l 61 -42 l 60 -25 l 65 -10 l 68 10 l 73 28 l 80 54 l 80 70 l 82 86 l 83 104 l 82 276 l 73 281 l 59 277 l 46 275 l 36 272 l 20 273 l 8 277 l -9 294 l -14 303 l -15 310 l -14 321 l -6 332 l 5 340 l 31 344 l 42 344 l 54 342 l 66 349 l 70 355 l 70 363 l 68 380 l 65 399 l 60 417 l 59 429 l 60 441 l 55 468 l 55 482 l 54 497 l 59 525 l 60 543 l 69 570 l 75 585 l 82 598 l 88 611 l 91 622 l 93 636 l 102 648 l 112 655 l 125 662 l 140 666 l 153 667 l 167 671 l 185 667 l 200 662 l 211 657 l 232 635 l 240 625 z"},"Q":{"x_min":0,"x_max":471,"ha":471,"o":"m 594 -31 l 593 -35 l 586 -39 l 580 -38 l 571 -36 l 563 -30 l 549 -16 l 533 1 l 517 13 l 498 27 l 475 48 l 464 54 l 455 70 l 447 72 l 434 80 l 415 95 l 397 107 l 391 117 l 378 114 l 369 104 l 359 96 l 343 90 l 320 81 l 301 73 l 292 75 l 280 63 l 269 59 l 246 54 l 222 57 l 204 59 l 189 67 l 179 75 l 167 80 l 160 87 l 148 93 l 137 110 l 129 112 l 115 114 l 98 121 l 82 136 l 68 151 l 46 195 l 43 215 l 36 224 l 33 247 l 31 269 l 35 284 l 35 303 l 39 321 l 37 339 l 51 356 l 61 369 l 70 384 l 68 395 l 73 399 l 73 411 l 81 431 l 93 443 l 103 464 l 100 485 l 112 492 l 128 500 l 129 510 l 143 524 l 153 524 l 165 543 l 183 549 l 211 555 l 223 563 l 231 570 l 246 568 l 260 559 l 269 543 l 273 524 l 283 522 l 315 494 l 329 476 l 345 457 l 351 440 l 360 420 l 361 403 l 370 383 l 380 366 l 385 346 l 391 323 l 387 299 l 387 275 l 396 252 l 399 228 l 406 201 l 405 174 l 402 164 l 411 147 l 420 133 l 451 104 l 468 90 l 488 72 l 507 54 l 526 35 l 547 21 l 561 8 l 571 -2 l 577 -15 l 586 -24 z m 382 211 l 378 227 l 374 252 l 366 295 l 371 319 l 369 341 l 365 353 l 357 366 l 352 372 l 352 384 l 346 394 l 337 407 l 337 423 l 333 436 l 323 454 l 311 467 l 297 476 l 288 489 l 271 498 l 255 496 l 243 503 l 230 498 l 208 495 l 189 486 l 179 477 l 167 462 l 153 453 l 144 436 l 133 427 l 131 413 l 119 401 l 108 392 l 103 374 l 97 351 l 96 335 l 99 320 l 93 305 l 98 284 l 96 256 l 97 234 l 103 215 l 110 200 l 123 179 l 140 150 l 147 145 l 160 130 l 179 128 l 193 122 l 208 113 l 226 113 l 245 118 l 253 117 l 260 121 l 276 118 l 291 114 l 308 114 l 328 126 l 343 132 l 347 142 l 354 150 l 350 158 l 338 168 l 318 179 l 309 195 l 300 196 l 292 202 l 280 209 l 269 202 l 253 201 l 234 201 l 213 207 l 203 218 l 198 228 l 200 238 l 202 255 l 211 267 l 223 271 l 234 278 l 252 274 l 267 278 l 287 276 l 303 270 l 314 260 l 317 246 l 322 228 l 333 220 l 346 209 l 360 195 l 370 190 l 378 192 l 380 200 z m 351 339 l 346 334 l 338 339 l 346 346 z"},"w":{"x_min":0,"x_max":359,"ha":359,"o":"m 287 274 l 284 269 l 279 273 l 279 277 l 284 279 z m 342 300 l 339 292 l 335 284 l 330 270 l 321 259 l 317 249 l 312 234 l 306 217 l 305 200 l 301 186 l 301 171 l 300 162 l 297 150 l 295 135 l 293 116 l 292 100 l 290 86 l 284 71 l 277 57 l 276 44 l 276 32 l 272 19 l 272 5 l 270 -4 l 267 -12 l 256 -17 l 248 -17 l 242 -9 l 239 7 l 238 19 l 231 26 l 230 34 l 227 45 l 222 65 l 220 78 l 218 88 l 215 99 l 212 111 l 209 119 l 209 129 l 204 137 l 201 145 l 197 159 l 196 169 l 192 178 l 186 187 l 180 192 l 174 186 l 171 176 l 167 165 l 166 156 l 164 149 l 158 141 l 153 127 l 148 115 l 143 101 l 142 87 l 137 74 l 134 60 l 130 45 l 127 29 l 122 17 l 118 4 l 112 -5 l 102 -12 l 96 -13 l 88 -13 l 81 -9 l 80 -2 l 76 9 l 73 21 l 70 32 l 68 50 l 63 60 l 63 71 l 62 86 l 62 99 l 60 112 l 55 141 l 52 154 l 51 167 l 52 179 l 50 194 l 47 207 l 42 217 l 39 228 l 35 237 l 29 242 l 22 250 l 18 260 l 18 277 l 25 287 l 31 294 l 44 299 l 59 297 l 72 290 l 81 284 l 89 275 l 92 267 l 98 258 l 102 245 l 102 231 l 104 217 l 102 200 l 104 184 l 104 165 l 106 154 l 108 144 l 110 133 l 110 124 l 113 120 l 119 123 l 125 127 l 130 137 l 133 148 l 137 161 l 148 190 l 156 205 l 163 216 l 171 231 l 177 245 l 180 254 l 185 262 l 189 267 l 200 266 l 205 259 l 205 249 l 204 238 l 204 228 l 205 216 l 209 205 l 215 190 l 217 175 l 222 159 l 226 140 l 230 124 l 234 109 l 238 99 l 238 87 l 241 74 l 243 63 l 246 54 l 248 44 l 252 41 l 258 50 l 258 59 l 256 70 l 250 81 l 249 92 l 250 103 l 254 119 l 255 132 l 255 146 l 256 161 l 260 176 l 267 190 l 270 205 l 272 217 l 279 228 l 285 238 l 292 252 l 298 265 l 305 274 l 313 285 l 317 295 l 324 303 l 329 313 l 337 314 l 338 310 z"},"-":{"x_min":0,"x_max":368,"ha":368,"o":"m 337 157 l 331 154 l 313 150 l 292 150 l 280 155 l 269 154 l 250 155 l 227 157 l 209 155 l 193 154 l 172 150 l 140 148 l 128 144 l 97 137 l 82 137 l 54 141 l 43 146 l 36 155 l 31 167 l 31 185 l 37 199 l 52 209 l 66 214 l 130 214 l 148 213 l 314 176 l 324 171 l 333 164 z"},"E":{"x_min":0,"x_max":429,"ha":429,"o":"m 449 574 l 448 565 l 441 562 l 434 562 l 420 568 l 407 574 l 373 574 l 350 567 l 324 562 l 292 546 l 270 542 l 256 542 l 242 536 l 205 535 l 174 535 l 141 532 l 113 527 l 98 522 l 89 507 l 85 490 l 82 465 l 80 440 l 75 397 l 76 388 l 72 360 l 76 357 l 84 359 l 96 364 l 113 379 l 128 385 l 160 385 l 202 384 l 229 382 l 234 378 l 242 371 l 267 371 l 276 365 l 285 366 l 304 360 l 324 357 l 325 352 l 322 348 l 310 340 l 299 340 l 290 342 l 257 343 l 220 337 l 186 333 l 155 328 l 124 326 l 99 317 l 75 334 l 72 307 l 73 288 l 75 264 l 81 238 l 90 209 l 99 183 l 127 144 l 142 127 l 163 114 l 184 103 l 210 90 l 241 86 l 274 80 l 299 74 l 315 75 l 329 71 l 367 65 l 375 58 l 373 51 l 370 42 l 359 40 l 335 43 l 310 42 l 271 40 l 244 42 l 224 49 l 215 48 l 201 51 l 174 58 l 156 62 l 142 74 l 127 84 l 114 94 l 100 117 l 85 141 l 82 163 l 85 178 l 73 200 l 70 224 l 61 237 l 59 265 l 54 283 l 57 302 l 52 329 l 57 347 l 50 360 l 53 365 l 52 380 l 57 396 l 54 412 l 62 429 l 59 452 l 59 470 l 66 482 l 64 499 l 68 509 l 66 527 l 57 537 l 39 555 l 38 565 l 39 582 l 43 604 l 50 620 l 68 632 l 84 637 l 96 642 l 117 636 l 140 625 l 170 624 l 211 625 l 265 627 l 297 627 l 322 620 l 347 618 l 366 615 l 384 610 l 397 606 l 406 606 l 425 595 l 441 585 z m 128 72 l 126 65 l 117 66 l 117 74 l 124 79 z"},"s":{"x_min":0,"x_max":266,"ha":266,"o":"m 15 322 l 8 318 l 0 324 l 6 332 l 15 330 z m 237 93 l 235 79 l 230 64 l 223 51 l 213 41 l 200 30 l 189 26 l 177 19 l 166 14 l 151 13 l 120 13 l 110 21 l 96 22 l 77 27 l 61 33 l 52 41 l 42 45 l 36 56 l 31 67 l 31 81 l 36 95 l 40 104 l 47 114 l 55 115 l 59 107 l 55 96 l 54 84 l 54 70 l 61 59 l 74 54 l 88 49 l 100 44 l 120 42 l 133 36 l 149 40 l 162 44 l 172 50 l 185 59 l 195 67 l 202 74 l 203 88 l 203 104 l 198 116 l 188 129 l 174 134 l 157 142 l 151 148 l 133 157 l 120 165 l 106 171 l 97 176 l 84 179 l 75 180 l 63 187 l 52 194 l 45 206 l 38 216 l 33 229 l 32 244 l 36 258 l 37 270 l 43 284 l 51 296 l 59 307 l 61 313 l 68 322 l 77 322 l 80 332 l 91 335 l 102 341 l 115 342 l 130 344 l 149 350 l 166 354 l 180 354 l 194 350 l 204 344 l 216 335 l 223 330 l 231 319 l 234 312 l 234 298 l 227 287 l 220 280 l 208 275 l 188 273 l 172 275 l 158 276 l 143 273 l 129 266 l 119 259 l 110 249 l 106 235 l 112 224 l 121 216 l 134 213 l 143 206 l 152 198 l 162 190 l 171 180 l 180 178 l 188 174 l 195 165 l 204 161 l 213 156 l 223 147 l 231 137 l 232 123 l 235 107 z"},">":{"x_min":0,"x_max":452,"ha":452,"o":"m 412 190 l 406 178 l 398 173 l 387 166 l 370 161 l 356 158 l 341 151 l 329 145 l 311 137 l 294 130 l 278 121 l 267 118 l 257 111 l 247 105 l 235 100 l 222 95 l 212 88 l 196 84 l 180 81 l 167 74 l 155 64 l 142 56 l 127 51 l 114 40 l 102 32 l 93 31 l 80 30 l 70 39 l 64 51 l 63 67 l 68 82 l 89 98 l 129 110 l 158 122 l 177 128 l 192 135 l 202 138 l 215 143 l 230 149 l 243 153 l 258 165 l 268 169 l 284 173 l 298 174 l 300 181 l 291 181 l 277 182 l 265 186 l 253 188 l 229 199 l 215 203 l 204 208 l 195 214 l 178 220 l 163 225 l 151 224 l 138 234 l 127 238 l 116 248 l 104 252 l 96 262 l 92 268 l 97 279 l 104 284 l 113 284 l 123 278 l 135 271 l 145 265 l 152 265 l 160 261 l 174 257 l 188 252 l 205 247 l 217 243 l 230 239 l 247 234 l 266 229 l 284 229 l 302 226 l 316 223 l 330 214 l 346 217 l 357 211 l 368 209 l 376 212 l 387 213 l 396 213 l 403 208 l 410 200 z"},"l":{"x_min":0,"x_max":178,"ha":178,"o":"m 140 615 l 137 606 l 137 594 l 136 576 l 132 560 l 128 538 l 132 521 l 128 506 l 126 487 l 122 440 l 118 426 l 117 410 l 118 387 l 110 371 l 107 349 l 102 325 l 98 299 l 94 281 l 88 267 l 89 257 l 89 243 l 85 230 l 83 213 l 82 199 l 79 180 l 79 164 l 74 146 l 74 102 l 75 88 l 75 74 l 77 60 l 83 49 l 96 37 l 103 28 l 119 12 l 117 5 l 107 5 l 95 10 l 81 21 l 68 40 l 59 56 l 58 72 l 57 92 l 57 107 l 54 124 l 52 141 l 52 160 l 57 179 l 58 198 l 61 212 l 64 227 l 62 243 l 64 261 l 64 281 l 67 296 l 64 312 l 62 332 l 64 357 l 59 385 l 58 412 l 59 435 l 57 486 l 58 507 l 57 528 l 52 547 l 47 567 l 43 588 l 35 602 l 27 615 l 22 630 l 22 648 l 31 659 l 45 666 l 59 672 l 72 672 l 84 671 l 98 664 l 112 652 l 122 644 l 132 634 z m 165 198 l 158 193 l 150 197 l 155 207 l 164 206 z"},"8":{"x_min":0,"x_max":470,"ha":470,"o":"m 295 588 l 290 585 l 285 588 l 283 592 l 286 596 l 294 595 z m 427 246 l 423 228 l 423 213 l 418 204 l 419 190 l 413 177 l 404 167 l 400 149 l 396 134 l 388 122 l 373 107 l 355 94 l 351 88 l 338 80 l 327 67 l 305 58 l 280 51 l 268 49 l 249 48 l 222 48 l 197 49 l 172 51 l 151 57 l 133 67 l 119 79 l 102 90 l 88 108 l 75 122 l 65 135 l 59 155 l 47 172 l 38 224 l 37 246 l 37 265 l 47 303 l 51 328 l 55 355 l 63 370 l 74 382 l 89 389 l 96 401 l 110 408 l 125 417 l 134 426 l 137 434 l 134 442 l 126 453 l 115 471 l 111 485 l 107 507 l 107 523 l 111 542 l 112 559 l 117 579 l 128 591 l 138 609 l 156 619 l 171 629 l 185 637 l 194 650 l 204 660 l 216 670 l 245 679 l 258 674 l 268 670 l 273 660 l 283 656 l 286 643 l 285 633 l 283 627 l 277 625 l 269 620 l 254 620 l 245 614 l 231 606 l 218 596 l 207 579 l 197 565 l 190 550 l 183 539 l 175 531 l 174 516 l 172 499 l 174 482 l 177 472 l 181 465 l 190 467 l 193 461 l 189 454 l 193 445 l 198 440 l 204 431 l 212 420 l 222 417 l 231 410 l 239 402 l 257 396 l 283 394 l 300 392 l 314 392 l 332 397 l 343 408 l 357 415 l 365 416 l 370 425 l 382 440 l 383 461 l 385 476 l 382 504 l 375 513 l 368 532 l 361 553 l 355 568 l 350 576 l 346 581 l 337 587 l 320 592 l 306 597 l 292 600 l 287 606 l 290 613 l 295 622 l 301 628 l 309 633 l 320 632 l 337 632 l 347 627 l 359 620 l 370 614 l 373 610 l 383 606 l 392 595 l 400 582 l 400 572 l 402 565 l 400 558 l 406 553 l 413 535 l 415 522 l 422 508 l 425 489 l 422 470 l 419 453 l 413 433 l 405 419 l 399 408 l 392 405 l 390 399 l 382 397 l 365 380 l 352 373 l 346 371 l 347 369 l 357 364 l 373 359 l 383 351 l 396 343 l 408 333 l 419 319 l 423 305 l 427 269 z m -5 67 l -6 60 l -17 57 l -23 66 l -20 72 l -9 77 z m 373 273 l 373 300 l 361 311 l 351 321 l 338 328 l 324 330 l 308 335 l 294 344 l 280 344 l 262 348 l 243 347 l 232 347 l 226 352 l 218 360 l 216 369 l 204 375 l 190 378 l 181 371 l 175 371 l 171 364 l 165 360 l 157 347 l 147 333 l 142 314 l 140 300 l 140 283 l 143 276 l 148 264 l 143 249 l 142 228 l 141 213 l 142 194 l 147 190 l 150 176 l 167 150 l 178 139 l 188 126 l 208 116 l 226 92 l 268 86 l 293 92 l 315 101 l 332 112 l 339 124 l 346 129 l 352 141 l 358 150 l 365 160 l 367 195 l 361 222 l 361 236 l 369 245 l 369 265 z m 343 165 l 329 154 l 322 141 l 315 123 l 295 127 l 287 144 l 278 148 l 273 168 l 250 186 l 249 202 l 264 209 l 285 192 l 301 189 l 315 193 l 329 190 l 343 176 z"},"\\":{"x_min":0,"x_max":473,"ha":473,"o":"m 472 -38 l 469 -59 l 456 -69 l 439 -76 l 425 -79 l 414 -75 l 396 -89 l 379 -91 l 360 -87 l 351 -78 l 352 -65 l 360 -52 l 364 -31 l 359 6 l 345 34 l 322 73 l 294 131 l 284 149 l 270 170 l 261 196 l 249 223 l 237 247 l 227 271 l 204 329 l 185 370 l 172 402 l 157 432 l 143 462 l 106 547 l 97 571 l 90 592 l 75 621 l 49 679 l 31 703 l 20 726 l 8 750 l 0 771 l -1 783 l 1 790 l 12 788 l 22 777 l 30 762 l 39 748 l 52 733 l 61 717 l 73 683 l 81 664 l 100 628 l 106 612 l 114 593 l 129 563 l 144 535 l 171 483 l 179 466 l 189 443 l 201 427 l 215 404 l 233 373 l 240 363 l 244 350 l 256 331 l 274 304 l 289 276 l 301 250 l 314 225 l 337 172 l 359 145 l 375 117 l 430 15 l 443 1 l 455 -3 l 465 -18 l 470 -29 z m 465 35 l 463 28 l 456 27 l 450 29 l 448 34 l 454 40 l 462 41 z"},"e":{"x_min":0,"x_max":342,"ha":342,"o":"m 318 220 l 309 207 l 295 199 l 278 192 l 257 185 l 234 183 l 213 178 l 198 171 l 181 165 l 167 161 l 144 160 l 126 162 l 114 161 l 103 157 l 98 146 l 100 125 l 106 114 l 117 100 l 138 77 l 149 67 l 170 56 l 181 51 l 195 45 l 211 45 l 226 49 l 239 51 l 253 56 l 267 59 l 276 59 l 277 55 l 272 50 l 263 44 l 248 36 l 232 28 l 217 22 l 202 18 l 180 19 l 158 24 l 140 33 l 119 47 l 100 63 l 87 72 l 77 81 l 69 93 l 63 97 l 51 127 l 40 153 l 33 174 l 31 190 l 32 208 l 36 227 l 40 243 l 45 254 l 50 266 l 54 272 l 63 280 l 70 281 l 82 298 l 96 310 l 111 318 l 129 321 l 152 321 l 171 322 l 197 319 l 218 313 l 276 284 l 291 275 l 305 262 l 313 252 l 318 235 z m 268 72 l 262 67 l 257 72 l 260 78 l 267 78 z m 225 249 l 217 258 l 204 264 l 190 270 l 174 272 l 158 272 l 144 268 l 130 262 l 117 253 l 110 249 l 102 240 l 105 234 l 112 235 l 123 234 l 142 234 l 158 230 l 175 230 l 193 231 l 209 235 l 223 239 z"},"b":{"x_min":0,"x_max":328,"ha":328,"o":"m 292 220 l 289 184 l 284 175 l 276 150 l 257 131 l 254 116 l 257 92 l 235 72 l 212 67 l 188 60 l 174 50 l 160 37 l 149 32 l 137 30 l 128 32 l 126 40 l 130 47 l 140 55 l 149 67 l 163 77 l 172 90 l 184 100 l 197 116 l 211 130 l 223 146 l 232 161 l 242 180 l 246 193 l 247 210 l 246 224 l 238 238 l 225 249 l 215 254 l 197 259 l 182 261 l 169 264 l 156 262 l 137 261 l 121 259 l 113 245 l 103 235 l 100 221 l 98 198 l 95 180 l 94 162 l 91 142 l 90 127 l 89 107 l 87 92 l 85 73 l 84 58 l 84 26 l 82 12 l 84 0 l 84 -15 l 82 -25 l 76 -32 l 70 -30 l 67 -27 l 64 -16 l 62 -1 l 62 41 l 61 60 l 64 81 l 64 123 l 62 144 l 66 197 l 60 210 l 46 215 l 38 220 l 28 230 l 23 240 l 24 254 l 30 267 l 39 276 l 44 290 l 61 312 l 62 330 l 61 355 l 59 380 l 58 399 l 58 418 l 54 440 l 53 459 l 50 479 l 49 500 l 47 520 l 47 530 l 49 547 l 49 561 l 45 576 l 44 590 l 38 603 l 38 615 l 44 625 l 53 635 l 67 640 l 81 641 l 98 636 l 112 630 l 128 625 l 140 617 l 142 602 l 141 583 l 147 569 l 151 550 l 152 535 l 147 510 l 137 494 l 129 483 l 122 469 l 122 449 l 110 418 l 109 394 l 107 369 l 105 349 l 105 332 l 110 322 l 121 319 l 150 317 l 170 314 l 184 313 l 201 307 l 218 303 l 234 299 l 250 290 l 267 275 l 279 262 l 289 243 z m 104 35 l 99 27 l 94 27 l 94 35 l 99 40 z"},"%":{"x_min":0,"x_max":525,"ha":525,"o":"m 178 620 l 172 615 l 167 622 l 175 626 z m 252 553 l 250 543 l 248 525 l 250 512 l 245 500 l 234 491 l 225 486 l 212 477 l 197 472 l 183 467 l 164 463 l 148 461 l 122 459 l 106 463 l 84 470 l 73 477 l 59 491 l 47 505 l 40 521 l 36 535 l 33 550 l 31 564 l 31 577 l 32 591 l 39 606 l 43 620 l 45 640 l 45 657 l 50 669 l 60 685 l 70 696 l 81 705 l 96 712 l 115 712 l 129 709 l 142 705 l 156 699 l 170 692 l 181 682 l 186 671 l 190 664 l 190 652 l 183 647 l 172 640 l 151 636 l 136 625 l 123 611 l 114 597 l 108 583 l 106 567 l 100 535 l 107 521 l 122 509 l 137 505 l 156 505 l 170 509 l 186 512 l 200 521 l 209 525 l 213 537 l 216 551 l 217 572 l 213 588 l 211 602 l 207 615 l 209 632 l 212 641 l 220 643 l 230 636 l 234 627 l 239 612 l 241 599 l 247 588 l 250 569 z m 464 689 l 462 680 l 457 671 l 450 664 l 444 657 l 433 639 l 426 627 l 423 615 l 415 602 l 410 588 l 398 577 l 392 562 l 385 555 l 377 539 l 366 522 l 365 514 l 357 505 l 351 491 l 350 477 l 343 463 l 335 446 l 323 425 l 313 405 l 299 386 l 293 373 l 287 369 l 280 352 l 272 337 l 265 333 l 264 322 l 257 310 l 248 297 l 240 283 l 237 275 l 227 268 l 223 257 l 216 242 l 212 232 l 205 225 l 200 210 l 193 192 l 185 176 l 177 165 l 175 156 l 168 145 l 162 132 l 151 118 l 144 104 l 144 96 l 141 89 l 134 75 l 127 60 l 123 49 l 117 42 l 114 33 l 107 20 l 103 6 l 103 -9 l 106 -21 l 108 -30 l 106 -36 l 105 -49 l 100 -57 l 93 -62 l 80 -66 l 67 -69 l 60 -71 l 52 -66 l 47 -57 l 44 -45 l 44 -30 l 51 -13 l 60 3 l 68 12 l 77 20 l 88 28 l 96 42 l 100 55 l 106 70 l 113 86 l 120 101 l 123 117 l 133 132 l 140 148 l 141 157 l 148 170 l 153 183 l 160 198 l 165 214 l 171 228 l 179 243 l 186 259 l 190 273 l 197 288 l 204 298 l 211 314 l 218 329 l 226 345 l 234 366 l 243 382 l 250 401 l 257 418 l 262 433 l 268 447 l 273 461 l 275 477 l 279 493 l 287 507 l 299 523 l 309 539 l 314 550 l 331 576 l 340 588 l 347 604 l 350 615 l 350 629 l 354 641 l 362 657 l 368 671 l 370 689 l 372 705 l 378 716 l 385 722 l 398 726 l 413 726 l 426 724 l 440 719 l 451 712 l 460 702 z m 320 264 l 315 259 l 309 257 l 308 262 l 314 267 z m 494 115 l 492 96 l 486 80 l 478 65 l 468 55 l 459 47 l 453 35 l 444 30 l 430 20 l 417 13 l 406 10 l 395 5 l 383 5 l 373 0 l 362 -1 l 348 -2 l 336 3 l 322 3 l 307 10 l 293 14 l 279 26 l 272 35 l 264 49 l 258 62 l 255 75 l 252 89 l 247 103 l 246 118 l 248 132 l 254 150 l 258 163 l 264 174 l 272 186 l 282 194 l 294 208 l 307 221 l 320 235 l 323 250 l 324 264 l 329 274 l 335 281 l 347 288 l 359 289 l 376 288 l 389 284 l 398 277 l 406 268 l 413 255 l 415 247 l 410 240 l 399 232 l 389 231 l 377 229 l 366 222 l 357 217 l 347 206 l 336 193 l 328 180 l 317 170 l 309 157 l 300 145 l 297 130 l 293 115 l 293 101 l 299 80 l 303 65 l 310 52 l 317 42 l 333 34 l 348 30 l 369 28 l 391 28 l 413 34 l 430 42 l 448 56 l 460 72 l 468 87 l 474 101 l 474 117 l 473 132 l 467 146 l 457 159 l 445 169 l 434 174 l 423 178 l 413 179 l 406 183 l 399 183 l 397 187 l 398 194 l 406 199 l 419 199 l 432 198 l 445 193 l 457 186 l 466 178 l 475 163 l 485 153 l 489 144 l 494 127 z"},"m":{"x_min":0,"x_max":457,"ha":457,"o":"m 419 310 l 406 305 l 401 313 l 406 324 l 416 319 z m 427 74 l 426 64 l 422 52 l 413 50 l 413 69 l 410 79 l 406 93 l 404 111 l 401 129 l 397 140 l 394 156 l 388 199 l 382 210 l 373 220 l 364 222 l 356 224 l 343 225 l 331 225 l 319 227 l 304 217 l 296 212 l 291 198 l 286 189 l 282 174 l 277 157 l 272 144 l 269 127 l 267 114 l 268 96 l 267 87 l 267 64 l 264 50 l 263 40 l 257 30 l 248 30 l 241 35 l 239 42 l 239 69 l 240 88 l 240 125 l 241 142 l 240 160 l 240 176 l 239 190 l 239 225 l 236 240 l 230 254 l 221 259 l 207 257 l 195 252 l 186 244 l 177 235 l 166 221 l 157 208 l 149 192 l 142 174 l 134 152 l 131 129 l 129 111 l 126 92 l 126 74 l 128 58 l 128 36 l 121 22 l 110 10 l 98 7 l 87 7 l 80 12 l 75 19 l 68 41 l 65 64 l 61 84 l 61 107 l 60 130 l 57 153 l 56 175 l 52 194 l 52 213 l 54 227 l 52 239 l 47 253 l 41 267 l 29 291 l 32 304 l 38 313 l 43 319 l 59 326 l 71 330 l 88 328 l 106 324 l 119 319 l 134 312 l 143 303 l 149 296 l 154 287 l 167 289 l 181 295 l 194 299 l 203 305 l 221 309 l 234 304 l 245 298 l 254 289 l 259 277 l 259 267 l 262 253 l 263 240 l 270 249 l 278 254 l 287 266 l 296 276 l 306 282 l 316 290 l 327 294 l 337 296 l 347 295 l 357 289 l 371 284 l 383 275 l 391 264 l 397 254 l 402 243 l 404 230 l 404 216 l 406 202 l 406 190 l 409 175 l 411 157 l 416 144 l 419 132 l 420 120 l 420 105 l 421 92 l 422 82 z"},"#":{"x_min":0,"x_max":1063,"ha":1063,"o":"m 1023 287 l 1020 282 l 1000 282 l 977 280 l 948 276 l 921 275 l 894 272 l 868 272 l 842 268 l 811 268 l 777 264 l 677 257 l 662 253 l 649 252 l 646 244 l 644 230 l 640 207 l 640 190 l 636 169 l 632 152 l 631 133 l 626 116 l 622 100 l 621 79 l 618 56 l 616 24 l 617 10 l 617 -2 l 607 -4 l 599 4 l 595 17 l 599 58 l 602 81 l 604 105 l 604 124 l 609 147 l 611 170 l 608 192 l 607 215 l 609 230 l 611 247 l 594 249 l 567 247 l 552 244 l 537 240 l 525 236 l 480 236 l 427 234 l 404 231 l 383 230 l 369 224 l 364 213 l 361 193 l 360 171 l 356 155 l 363 130 l 363 93 l 361 72 l 360 54 l 356 36 l 354 18 l 354 -16 l 351 -28 l 351 -42 l 347 -53 l 337 -55 l 327 -43 l 327 -27 l 331 -4 l 333 41 l 333 67 l 331 90 l 329 110 l 326 130 l 322 147 l 322 164 l 323 179 l 327 197 l 331 210 l 326 224 l 310 225 l 172 224 l 151 222 l 119 222 l 97 220 l 70 221 l 52 227 l 42 235 l 40 244 l 49 254 l 64 258 l 82 262 l 101 266 l 116 267 l 134 264 l 157 261 l 169 266 l 175 280 l 184 289 l 192 296 l 197 290 l 195 281 l 195 268 l 199 264 l 216 262 l 234 261 l 255 261 l 272 258 l 303 259 l 318 259 l 329 262 l 329 277 l 331 294 l 327 336 l 333 378 l 329 392 l 332 407 l 332 420 l 324 433 l 303 431 l 272 429 l 246 426 l 194 424 l 172 419 l 144 419 l 116 420 l 97 425 l 79 431 l 74 444 l 77 457 l 91 465 l 109 470 l 126 475 l 144 475 l 165 476 l 180 475 l 190 479 l 198 490 l 206 499 l 217 507 l 222 499 l 220 477 l 229 471 l 244 472 l 263 470 l 278 471 l 294 470 l 309 467 l 323 471 l 326 498 l 326 514 l 322 530 l 324 544 l 324 564 l 310 579 l 287 582 l 280 596 l 267 609 l 269 619 l 278 620 l 291 615 l 300 613 l 312 613 l 319 618 l 314 628 l 309 639 l 306 650 l 309 660 l 317 666 l 332 671 l 346 673 l 364 670 l 377 665 l 386 656 l 383 645 l 386 633 l 391 624 l 399 613 l 401 600 l 399 583 l 396 565 l 391 554 l 392 544 l 387 530 l 386 516 l 383 500 l 382 489 l 387 477 l 399 470 l 419 467 l 437 467 l 459 465 l 501 465 l 517 467 l 534 467 l 558 463 l 576 462 l 595 462 l 602 475 l 604 495 l 603 522 l 607 544 l 614 562 l 617 581 l 618 591 l 614 600 l 617 613 l 621 624 l 623 633 l 621 642 l 625 655 l 641 660 l 659 664 l 677 660 l 696 659 l 711 657 l 720 656 l 723 648 l 732 642 l 736 633 l 732 622 l 724 613 l 715 604 l 711 595 l 708 582 l 700 572 l 692 559 l 686 545 l 683 532 l 677 525 l 676 512 l 671 500 l 667 484 l 664 470 l 672 462 l 686 462 l 704 461 l 723 461 l 743 462 l 757 462 l 773 461 l 792 459 l 807 461 l 824 461 l 842 459 l 871 459 l 886 457 l 900 461 l 914 459 l 923 456 l 928 448 l 917 444 l 902 442 l 885 440 l 863 439 l 839 439 l 807 440 l 782 438 l 759 439 l 732 439 l 705 438 l 690 435 l 677 433 l 667 429 l 660 420 l 655 407 l 654 393 l 651 378 l 649 310 l 651 298 l 649 282 l 660 276 l 674 272 l 691 273 l 709 275 l 746 275 l 787 277 l 840 277 l 861 280 l 881 277 l 903 281 l 926 282 l 953 282 l 983 284 l 1009 289 z m 723 -70 l 717 -75 l 706 -76 l 699 -62 l 706 -55 l 719 -56 z m 612 268 l 612 281 l 609 298 l 607 373 l 604 399 l 604 420 l 600 433 l 579 435 l 556 435 l 525 438 l 492 433 l 466 434 l 441 433 l 414 431 l 394 429 l 379 420 l 379 410 l 378 393 l 375 379 l 370 340 l 370 294 l 369 277 l 374 266 l 387 261 l 406 259 l 429 261 l 479 261 l 510 262 l 535 262 l 567 266 z"},",":{"x_min":0,"x_max":245,"ha":245,"o":"m 174 10 l 172 -6 l 165 -43 l 158 -64 l 150 -80 l 144 -93 l 135 -106 l 127 -117 l 118 -129 l 112 -139 l 104 -150 l 93 -158 l 85 -163 l 80 -162 l 76 -158 l 77 -148 l 89 -139 l 96 -130 l 103 -117 l 114 -102 l 126 -85 l 133 -66 l 137 -53 l 140 -41 l 140 -19 l 133 -13 l 123 -19 l 114 -24 l 104 -27 l 93 -27 l 84 -23 l 77 -15 l 72 0 l 70 14 l 75 28 l 89 42 l 95 56 l 119 70 l 140 70 l 151 72 l 164 69 l 170 60 l 173 49 l 173 21 z"},"n":{"x_min":0,"x_max":343,"ha":343,"o":"m 299 57 l 295 52 l 290 48 l 280 49 l 271 57 l 268 66 l 267 79 l 267 90 l 263 104 l 262 118 l 262 131 l 258 144 l 257 159 l 249 183 l 247 219 l 239 244 l 227 255 l 213 261 l 207 269 l 197 274 l 181 269 l 170 265 l 160 254 l 150 242 l 137 224 l 132 212 l 129 201 l 127 191 l 119 180 l 110 169 l 106 153 l 105 135 l 105 117 l 103 95 l 102 75 l 102 57 l 103 40 l 107 25 l 110 12 l 111 0 l 106 -6 l 102 -11 l 93 -13 l 84 -13 l 78 -9 l 73 -3 l 68 14 l 65 28 l 61 56 l 61 67 l 59 79 l 57 95 l 57 114 l 55 131 l 55 144 l 54 157 l 51 172 l 51 190 l 50 206 l 50 268 l 46 280 l 40 289 l 36 297 l 32 307 l 31 319 l 32 328 l 37 337 l 43 343 l 54 351 l 68 352 l 82 351 l 93 344 l 103 337 l 114 326 l 119 319 l 123 307 l 134 302 l 144 305 l 158 307 l 172 311 l 185 315 l 202 317 l 216 319 l 230 314 l 237 306 l 243 292 l 248 282 l 250 268 l 255 259 l 262 247 l 267 231 l 268 217 l 269 201 l 272 186 l 273 171 l 277 157 l 278 144 l 278 130 l 280 116 l 285 102 l 287 88 l 295 77 l 299 66 z m 254 43 l 250 37 l 245 35 l 241 43 l 249 51 z"},"h":{"x_min":0,"x_max":339,"ha":339,"o":"m 295 18 l 292 3 l 284 -8 l 280 -11 l 271 -11 l 262 -3 l 275 6 l 276 17 l 278 25 l 273 49 l 271 72 l 266 110 l 270 126 l 258 141 l 256 155 l 259 164 l 254 176 l 254 192 l 250 204 l 241 214 l 235 223 l 224 240 l 221 255 l 208 266 l 201 273 l 188 273 l 163 268 l 153 262 l 140 242 l 131 216 l 127 198 l 123 189 l 120 172 l 119 154 l 119 140 l 117 123 l 117 67 l 123 29 l 124 12 l 126 -5 l 126 -17 l 125 -33 l 121 -42 l 115 -53 l 104 -54 l 96 -50 l 89 -41 l 93 -26 l 90 -12 l 88 22 l 83 39 l 87 52 l 81 69 l 80 89 l 75 112 l 75 133 l 73 142 l 64 184 l 61 195 l 61 216 l 58 231 l 53 250 l 52 269 l 53 290 l 50 300 l 45 336 l 48 366 l 41 380 l 38 403 l 34 422 l 34 442 l 35 467 l 31 478 l 35 487 l 34 504 l 26 521 l 23 540 l 19 549 l 20 558 l 16 577 l 12 597 l 11 612 l 22 627 l 27 639 l 34 636 l 38 644 l 46 658 l 61 663 l 78 660 l 94 659 l 108 649 l 120 633 l 126 620 l 128 600 l 124 587 l 118 574 l 113 555 l 110 532 l 108 513 l 108 487 l 104 463 l 109 445 l 110 422 l 110 397 l 111 375 l 110 351 l 110 299 l 121 311 l 135 329 l 163 339 l 193 336 l 213 333 l 232 326 l 254 313 l 269 292 l 276 280 l 281 252 l 285 232 l 285 212 l 288 186 l 289 162 l 289 142 l 291 123 l 291 102 l 288 73 l 291 51 l 292 33 z"},"z":{"x_min":0,"x_max":359,"ha":359,"o":"m 344 29 l 339 24 l 330 24 l 320 26 l 306 29 l 290 27 l 275 30 l 251 30 l 234 31 l 215 35 l 183 35 l 170 34 l 155 35 l 141 30 l 126 29 l 110 29 l 95 27 l 81 30 l 75 27 l 54 26 l 43 26 l 30 22 l 25 16 l 16 16 l 8 21 l 8 29 l 13 39 l 22 54 l 36 64 l 48 79 l 58 90 l 67 101 l 77 111 l 89 120 l 98 133 l 113 147 l 130 162 l 146 178 l 163 192 l 178 206 l 195 217 l 213 227 l 230 231 l 239 244 l 250 252 l 265 259 l 276 268 l 280 275 l 283 280 l 278 284 l 266 281 l 251 281 l 241 277 l 230 277 l 219 272 l 202 267 l 183 262 l 163 253 l 140 245 l 119 243 l 99 240 l 76 243 l 56 245 l 39 252 l 26 262 l 21 275 l 20 285 l 21 298 l 30 309 l 43 318 l 58 322 l 75 324 l 93 324 l 114 319 l 142 318 l 164 318 l 196 319 l 218 322 l 242 322 l 266 327 l 284 328 l 298 326 l 313 321 l 325 321 l 338 317 l 340 310 l 343 300 l 339 295 l 330 282 l 315 268 l 296 254 l 278 240 l 261 231 l 250 224 l 218 202 l 196 192 l 182 179 l 142 148 l 121 130 l 105 114 l 95 101 l 85 92 l 76 86 l 70 74 l 61 65 l 58 60 l 63 56 l 76 56 l 89 54 l 110 54 l 149 56 l 174 58 l 197 58 l 223 55 l 246 54 l 262 50 l 278 47 l 298 47 l 313 44 l 329 42 l 336 42 l 343 41 z"},"B":{"x_min":0,"x_max":504,"ha":504,"o":"m 147 715 l 146 709 l 134 708 l 137 715 l 143 722 z m 469 202 l 468 183 l 463 171 l 454 155 l 449 139 l 433 124 l 426 102 l 415 84 l 404 82 l 400 86 l 408 95 l 409 102 l 413 107 l 423 115 l 438 142 l 445 160 l 456 190 l 455 229 l 452 252 l 446 259 l 445 270 l 438 280 l 438 289 l 422 305 l 412 322 l 404 328 l 402 336 l 387 349 l 364 363 l 321 366 l 285 362 l 259 357 l 230 352 l 170 332 l 161 322 l 147 321 l 142 305 l 141 289 l 142 267 l 141 240 l 139 220 l 141 199 l 153 199 l 160 212 l 167 220 l 178 217 l 184 213 l 183 201 l 179 185 l 170 170 l 167 144 l 184 130 l 197 118 l 208 105 l 216 87 l 229 84 l 244 77 l 261 67 l 273 65 l 289 59 l 310 54 l 332 55 l 372 55 l 387 64 l 387 56 l 383 50 l 372 41 l 365 30 l 359 28 l 351 32 l 317 32 l 291 35 l 285 42 l 267 44 l 252 56 l 239 60 l 229 67 l 220 64 l 203 70 l 178 65 l 148 49 l 110 36 l 103 32 l 75 18 l 57 13 l 43 25 l 25 45 l 20 71 l 28 93 l 26 97 l 32 102 l 37 107 l 49 125 l 45 142 l 49 157 l 44 169 l 49 192 l 58 202 l 74 220 l 74 238 l 77 250 l 74 284 l 78 294 l 79 317 l 77 327 l 78 362 l 73 403 l 68 418 l 65 441 l 58 459 l 53 501 l 49 512 l 50 528 l 55 539 l 55 604 l 58 635 l 65 648 l 81 662 l 100 666 l 110 672 l 137 675 l 164 675 l 199 677 l 225 682 l 250 686 l 263 690 l 273 687 l 291 685 l 332 685 l 370 681 l 393 680 l 413 667 l 427 641 l 433 618 l 438 594 l 438 570 l 433 543 l 431 516 l 410 482 l 395 468 l 381 447 l 368 442 l 356 429 l 340 417 l 330 412 l 332 405 l 345 401 l 364 399 l 381 394 l 395 380 l 409 372 l 419 352 l 438 327 l 449 305 l 460 291 l 464 276 l 469 252 l 468 236 l 469 220 z m 388 109 l 386 101 l 377 97 l 365 97 l 340 107 l 323 118 l 298 133 l 281 160 l 267 185 l 261 201 l 258 217 l 258 229 l 263 235 l 282 243 l 304 240 l 333 244 l 341 239 l 344 230 l 337 220 l 326 215 l 328 193 l 344 174 l 359 155 l 370 134 l 379 130 z m 422 561 l 419 588 l 417 597 l 419 606 l 405 629 l 386 645 l 378 645 l 372 654 l 318 654 l 295 648 l 262 640 l 229 630 l 197 617 l 165 598 l 153 592 l 139 579 l 132 561 l 127 528 l 128 509 l 133 477 l 134 449 l 138 435 l 138 412 l 141 392 l 153 387 l 171 385 l 192 387 l 235 400 l 267 403 l 285 404 l 314 417 l 328 427 l 342 435 l 355 449 l 363 452 l 372 468 l 387 479 l 396 492 l 410 501 l 412 523 l 418 535 l 417 544 z"},"K":{"x_min":0,"x_max":455,"ha":455,"o":"m 465 105 l 464 100 l 458 100 l 454 101 l 438 114 l 419 127 l 410 137 l 400 141 l 370 167 l 353 187 l 321 215 l 312 229 l 299 239 l 289 257 l 254 281 l 215 307 l 194 319 l 179 332 l 166 333 l 161 340 l 147 340 l 139 335 l 138 327 l 133 299 l 130 267 l 125 220 l 120 189 l 120 165 l 116 150 l 116 119 l 115 95 l 115 69 l 118 47 l 119 28 l 113 14 l 106 13 l 101 18 l 95 26 l 91 33 l 87 55 l 81 69 l 76 93 l 81 107 l 79 139 l 86 156 l 81 178 l 83 199 l 78 229 l 72 257 l 72 281 l 67 294 l 68 304 l 60 318 l 59 333 l 63 363 l 60 389 l 55 414 l 58 433 l 53 447 l 56 470 l 59 486 l 51 519 l 50 538 l 44 546 l 44 558 l 49 576 l 56 585 l 74 598 l 96 602 l 119 595 l 139 588 l 155 569 l 162 555 l 162 532 l 160 510 l 153 493 l 147 472 l 143 454 l 146 445 l 155 440 l 166 442 l 180 450 l 198 464 l 230 491 l 245 501 l 280 530 l 305 549 l 337 572 l 367 589 l 382 602 l 398 615 l 409 618 l 418 629 l 435 639 l 450 644 l 456 643 l 461 640 l 458 635 l 454 629 l 438 620 l 423 606 l 410 602 l 396 590 l 379 580 l 364 567 l 345 552 l 328 534 l 310 524 l 303 514 l 289 505 l 236 452 l 213 435 l 198 419 l 192 410 l 184 409 l 187 395 l 213 369 l 231 350 l 253 330 l 275 313 l 293 298 l 312 277 l 330 250 l 350 227 l 358 216 l 364 202 l 373 193 l 390 175 l 408 160 l 415 148 l 424 142 l 442 127 l 456 116 z m 458 5 l 449 -1 l 442 4 l 442 14 l 447 18 l 456 13 z m 119 0 l 116 -5 l 109 0 l 116 7 z"},"R":{"x_min":0,"x_max":430,"ha":430,"o":"m 473 -43 l 470 -45 l 463 -45 l 455 -41 l 445 -35 l 419 -16 l 401 0 l 382 24 l 367 44 l 355 65 l 340 81 l 319 107 l 295 130 l 273 150 l 256 172 l 231 201 l 213 228 l 194 252 l 176 274 l 155 292 l 132 305 l 110 305 l 109 291 l 102 268 l 96 232 l 95 210 l 90 191 l 83 140 l 81 111 l 81 93 l 78 52 l 78 42 l 83 34 l 91 25 l 95 12 l 93 5 l 88 -2 l 79 -6 l 70 -4 l 63 2 l 58 10 l 46 30 l 44 54 l 44 84 l 46 131 l 51 150 l 53 162 l 53 186 l 56 200 l 59 215 l 60 231 l 65 252 l 67 275 l 72 300 l 73 326 l 78 343 l 79 362 l 79 385 l 82 408 l 83 433 l 93 485 l 96 504 l 96 523 l 97 550 l 104 568 l 110 585 l 106 602 l 110 620 l 102 639 l 105 655 l 113 669 l 134 671 l 155 685 l 175 688 l 203 689 l 233 688 l 266 685 l 282 678 l 296 673 l 310 662 l 326 647 l 336 629 l 346 610 l 355 585 l 355 569 l 364 550 l 363 528 l 365 517 l 363 495 l 359 476 l 356 454 l 355 434 l 351 417 l 342 396 l 328 379 l 314 369 l 299 357 l 284 349 l 270 340 l 270 321 l 275 306 l 281 291 l 284 277 l 298 243 l 319 208 l 328 192 l 337 172 l 351 146 l 359 130 l 372 111 l 379 90 l 387 71 l 400 51 l 410 34 l 426 15 l 445 -3 l 458 -17 l 468 -30 l 472 -36 z m 148 224 l 147 217 l 139 219 l 138 224 l 146 231 z m 275 516 l 268 537 l 273 558 l 268 567 l 268 604 l 258 619 l 238 625 l 221 632 l 213 628 l 206 629 l 175 618 l 169 609 l 165 597 l 161 581 l 157 560 l 157 542 l 146 490 l 136 465 l 130 444 l 128 420 l 130 408 l 128 392 l 138 384 l 153 380 l 166 387 l 190 393 l 221 399 l 238 410 l 256 425 l 262 440 l 259 449 l 262 459 l 262 477 l 263 494 z m 266 544 l 258 539 l 253 546 l 258 554 l 266 551 z"},"T":{"x_min":0,"x_max":393,"ha":393,"o":"m 497 611 l 488 607 l 481 609 l 461 612 l 433 615 l 401 615 l 362 613 l 320 607 l 282 606 l 249 599 l 222 594 l 193 585 l 171 579 l 150 574 l 143 566 l 130 558 l 113 549 l 93 543 l 66 539 l 39 538 l 15 546 l 1 555 l -13 565 l -26 576 l -28 590 l -26 606 l -17 618 l -9 626 l 4 630 l 24 640 l 43 645 l 73 648 l 106 648 l 148 645 l 190 645 l 235 648 l 272 649 l 288 652 l 309 650 l 332 654 l 357 649 l 380 650 l 401 648 l 441 643 l 460 643 l 492 627 l 497 618 z m 117 717 l 111 709 l 103 717 l 108 727 l 117 724 z m 240 530 l 235 521 l 231 501 l 231 483 l 228 460 l 228 440 l 226 424 l 222 410 l 226 399 l 219 386 l 218 369 l 218 354 l 214 335 l 212 313 l 210 296 l 212 276 l 208 253 l 207 231 l 207 213 l 208 190 l 210 165 l 208 141 l 208 115 l 205 93 l 207 72 l 207 49 l 208 28 l 207 7 l 200 0 l 198 5 l 196 14 l 198 30 l 199 49 l 195 60 l 196 79 l 193 90 l 190 105 l 190 155 l 186 171 l 186 189 l 184 208 l 184 231 l 182 250 l 182 270 l 184 290 l 184 317 l 182 344 l 182 387 l 181 403 l 185 418 l 185 437 l 184 461 l 176 484 l 171 505 l 163 521 l 161 537 l 161 551 l 168 562 l 180 574 l 196 576 l 208 572 l 222 560 l 233 547 z"},"P":{"x_min":0,"x_max":395,"ha":395,"o":"m 64 506 l 62 500 l 53 495 l 45 505 l 53 510 z m 377 509 l 375 489 l 372 464 l 367 445 l 361 431 l 357 417 l 349 401 l 336 392 l 329 378 l 315 364 l 301 358 l 289 350 l 239 344 l 215 350 l 200 350 l 181 359 l 178 364 l 178 377 l 182 380 l 195 380 l 209 375 l 224 371 l 252 369 l 276 371 l 292 375 l 302 389 l 308 404 l 322 423 l 325 437 l 334 450 l 338 472 l 340 510 l 335 529 l 335 549 l 327 566 l 312 595 l 308 607 l 299 612 l 292 629 l 271 639 l 255 645 l 229 648 l 201 649 l 174 648 l 167 641 l 172 626 l 165 604 l 158 581 l 151 555 l 145 529 l 142 514 l 141 492 l 137 472 l 135 446 l 130 426 l 130 404 l 124 380 l 121 362 l 118 341 l 110 318 l 107 296 l 100 270 l 96 244 l 90 217 l 82 189 l 58 141 l 57 124 l 50 109 l 44 92 l 45 70 l 43 55 l 36 37 l 40 12 l 49 0 l 52 -13 l 49 -18 l 40 -19 l 35 -19 l 31 -13 l 24 4 l 22 27 l 25 56 l 29 82 l 31 109 l 31 129 l 38 134 l 43 146 l 44 170 l 40 194 l 49 210 l 58 252 l 62 277 l 67 298 l 62 318 l 64 336 l 70 369 l 72 403 l 77 432 l 76 459 l 82 482 l 90 516 l 90 542 l 95 579 l 90 602 l 87 626 l 84 641 l 89 664 l 100 675 l 121 680 l 140 673 l 154 673 l 178 685 l 202 689 l 225 686 l 246 692 l 270 687 l 297 677 l 317 663 l 335 644 l 350 615 l 357 606 l 359 590 l 367 576 l 372 557 l 375 539 l 373 523 z"},"|":{"x_min":0,"x_max":346,"ha":346,"o":"m 354 131 l 347 126 l 340 136 l 346 143 l 354 138 z m 203 619 l 195 606 l 194 596 l 193 584 l 191 568 l 186 557 l 186 541 l 185 520 l 181 499 l 183 482 l 179 469 l 185 453 l 180 430 l 180 413 l 179 385 l 174 371 l 177 361 l 177 339 l 174 320 l 177 299 l 175 272 l 175 180 l 178 170 l 178 148 l 175 129 l 178 108 l 176 81 l 176 14 l 177 -9 l 180 -33 l 187 -44 l 190 -80 l 189 -101 l 191 -123 l 188 -134 l 189 -145 l 191 -161 l 189 -167 l 184 -171 l 180 -171 l 175 -167 l 170 -158 l 163 -150 l 161 -134 l 161 -110 l 160 -79 l 160 -33 l 156 -11 l 153 -4 l 154 20 l 153 35 l 156 51 l 153 70 l 152 88 l 152 102 l 148 133 l 148 191 l 149 215 l 148 230 l 151 246 l 148 265 l 147 283 l 147 297 l 143 328 l 143 417 l 137 426 l 147 439 l 142 476 l 142 527 l 138 543 l 143 561 l 140 579 l 140 591 l 144 601 l 143 608 l 144 616 l 138 631 l 138 648 l 144 657 l 140 674 l 151 684 l 167 688 l 181 690 l 195 688 l 198 672 l 200 658 l 203 647 l 202 633 z"},"t":{"x_min":0,"x_max":272,"ha":272,"o":"m 269 265 l 263 255 l 251 257 l 249 266 l 258 269 z m 284 325 l 283 318 l 276 313 l 263 310 l 249 309 l 234 305 l 220 305 l 205 304 l 186 300 l 175 303 l 161 299 l 151 292 l 146 284 l 146 275 l 145 260 l 141 252 l 141 240 l 138 227 l 133 208 l 131 192 l 131 129 l 132 114 l 131 95 l 127 81 l 126 70 l 124 51 l 128 17 l 132 9 l 138 -5 l 148 -12 l 166 -19 l 177 -18 l 198 -18 l 193 -26 l 176 -32 l 153 -32 l 138 -30 l 123 -25 l 109 -16 l 94 -11 l 79 5 l 72 21 l 71 39 l 67 57 l 63 70 l 65 89 l 65 109 l 63 124 l 66 138 l 61 157 l 59 179 l 58 197 l 59 213 l 63 231 l 63 294 l 50 292 l 37 288 l 23 283 l 13 276 l 4 274 l -3 275 l -7 280 l -7 285 l -5 294 l 1 300 l 11 305 l 22 304 l 35 307 l 48 309 l 63 310 l 65 319 l 63 333 l 65 349 l 66 370 l 65 384 l 63 396 l 59 408 l 59 419 l 65 431 l 79 438 l 89 448 l 104 454 l 116 453 l 127 448 l 138 441 l 142 434 l 150 425 l 153 417 l 160 405 l 162 399 l 161 385 l 157 374 l 156 362 l 151 352 l 153 343 l 161 337 l 175 334 l 188 336 l 225 336 l 236 334 l 255 333 l 269 329 l 276 328 z"},"M":{"x_min":0,"x_max":576,"ha":576,"o":"m 207 710 l 202 701 l 194 704 l 195 717 l 204 717 z m 534 294 l 524 283 l 519 294 l 526 304 z m 517 -46 l 515 -51 l 509 -55 l 502 -42 l 495 -16 l 489 -5 l 489 2 l 487 41 l 475 78 l 471 118 l 464 145 l 455 184 l 452 213 l 443 229 l 435 259 l 435 283 l 428 303 l 429 344 l 422 358 l 419 380 l 418 411 l 422 442 l 428 459 l 422 478 l 419 498 l 418 521 l 406 531 l 395 535 l 382 522 l 367 502 l 354 477 l 343 448 l 333 416 l 324 389 l 316 362 l 307 335 l 300 320 l 292 312 l 283 307 l 270 313 l 261 327 l 246 350 l 238 371 l 227 419 l 223 441 l 217 468 l 207 492 l 201 514 l 193 532 l 183 538 l 171 544 l 165 531 l 157 509 l 148 482 l 140 425 l 134 392 l 134 380 l 129 336 l 119 283 l 118 255 l 127 245 l 128 224 l 133 206 l 123 190 l 112 174 l 93 171 l 74 171 l 51 170 l 35 177 l 24 185 l 18 204 l 24 245 l 35 266 l 44 270 l 46 320 l 63 379 l 66 403 l 78 425 l 77 439 l 91 461 l 91 475 l 119 544 l 123 558 l 132 565 l 135 583 l 148 600 l 165 625 l 180 634 l 193 634 l 201 624 l 210 606 l 216 583 l 223 558 l 233 525 l 238 502 l 246 475 l 250 454 l 254 425 l 257 401 l 264 378 l 277 362 l 284 356 l 292 365 l 297 382 l 306 401 l 317 433 l 329 462 l 336 484 l 343 500 l 336 508 l 330 524 l 331 544 l 340 565 l 350 585 l 354 604 l 367 627 l 377 637 l 390 655 l 408 666 l 419 673 l 435 669 l 451 667 l 468 657 l 481 645 l 492 630 l 495 609 l 496 584 l 495 561 l 494 532 l 496 478 l 496 447 l 505 392 l 504 365 l 502 329 l 501 300 l 501 273 l 498 240 l 492 227 l 498 201 l 498 148 l 504 137 l 505 101 l 509 72 l 515 18 l 517 -6 z m 95 110 l 88 103 l 80 104 l 81 117 l 89 117 z"},"g":{"x_min":0,"x_max":327,"ha":327,"o":"m 283 304 l 278 295 l 272 287 l 268 273 l 269 253 l 269 231 l 272 208 l 272 178 l 276 150 l 274 125 l 276 96 l 274 73 l 276 51 l 272 37 l 274 19 l 272 -6 l 269 -28 l 267 -55 l 262 -73 l 257 -90 l 248 -113 l 237 -139 l 226 -158 l 204 -180 l 191 -190 l 170 -198 l 149 -205 l 121 -207 l 96 -205 l 75 -203 l 56 -195 l 41 -189 l 28 -177 l 19 -166 l 14 -152 l 14 -140 l 22 -138 l 29 -143 l 36 -150 l 45 -162 l 57 -170 l 71 -180 l 88 -182 l 112 -189 l 137 -186 l 158 -181 l 174 -173 l 191 -159 l 202 -143 l 214 -124 l 221 -106 l 231 -84 l 234 -61 l 237 -33 l 239 -6 l 239 12 l 237 30 l 236 42 l 237 69 l 217 56 l 193 49 l 165 45 l 143 49 l 120 55 l 96 69 l 82 79 l 66 88 l 56 104 l 47 119 l 50 137 l 45 148 l 37 169 l 37 176 l 38 206 l 45 231 l 51 249 l 68 262 l 79 277 l 82 296 l 96 305 l 105 311 l 111 321 l 151 328 l 177 324 l 193 322 l 207 317 l 217 310 l 226 304 l 236 305 l 245 313 l 249 322 l 262 324 l 274 321 l 281 313 z m 92 19 l 91 10 l 83 4 l 68 4 l 61 14 l 75 19 l 83 26 z m 234 115 l 231 132 l 231 150 l 232 169 l 230 206 l 227 227 l 222 240 l 212 250 l 199 247 l 185 239 l 171 230 l 156 216 l 135 207 l 111 170 l 110 150 l 107 134 l 114 120 l 126 109 l 139 90 l 162 77 l 180 73 l 203 74 l 226 78 l 232 96 z"},"j":{"x_min":0,"x_max":224,"ha":224,"o":"m 150 455 l 149 441 l 137 432 l 123 427 l 93 417 l 76 412 l 62 412 l 49 414 l 39 419 l 31 431 l 29 442 l 30 455 l 40 468 l 54 475 l 73 479 l 89 487 l 99 500 l 109 528 l 118 538 l 127 546 l 137 546 l 144 538 l 144 528 l 142 512 l 139 501 l 141 487 l 144 478 l 142 472 l 146 464 z m -7 147 l -11 141 l -17 139 l -21 146 l -15 152 z m 179 290 l 174 280 l 167 262 l 160 247 l 158 230 l 156 215 l 153 198 l 150 183 l 150 164 l 146 147 l 146 125 l 144 111 l 144 101 l 142 81 l 142 63 l 145 54 l 144 44 l 142 26 l 141 7 l 141 -11 l 145 -28 l 145 -43 l 142 -60 l 137 -73 l 136 -85 l 136 -99 l 133 -113 l 127 -130 l 119 -145 l 112 -161 l 103 -171 l 90 -185 l 82 -196 l 71 -200 l 58 -210 l 44 -216 l 29 -223 l 15 -231 l -1 -235 l -12 -233 l -21 -237 l -38 -236 l -53 -236 l -66 -230 l -76 -228 l -96 -216 l -107 -216 l -113 -205 l -114 -198 l -118 -189 l -113 -184 l -105 -185 l -96 -193 l -89 -203 l -81 -208 l -76 -214 l -52 -221 l -39 -221 l -29 -223 l -15 -221 l 1 -214 l 15 -207 l 26 -196 l 39 -185 l 47 -173 l 54 -166 l 66 -152 l 71 -138 l 79 -121 l 85 -107 l 89 -93 l 90 -79 l 94 -66 l 96 -55 l 94 -38 l 90 -24 l 90 -10 l 86 4 l 86 17 l 89 27 l 84 42 l 82 56 l 79 70 l 77 81 l 76 95 l 77 109 l 73 123 l 71 134 l 71 150 l 73 162 l 70 176 l 75 187 l 70 197 l 68 210 l 68 222 l 62 234 l 59 250 l 53 266 l 49 281 l 48 296 l 53 310 l 58 322 l 63 332 l 73 336 l 82 337 l 94 342 l 109 342 l 122 340 l 136 335 l 149 330 l 160 321 l 169 314 l 176 300 z"},"i":{"x_min":0,"x_max":166,"ha":166,"o":"m 68 540 l 60 535 l 52 537 l 54 546 l 61 549 z m 117 522 l 115 514 l 107 505 l 100 495 l 100 486 l 105 477 l 110 470 l 110 456 l 105 444 l 97 434 l 87 426 l 74 425 l 60 426 l 52 431 l 42 438 l 33 448 l 22 462 l 17 475 l 15 485 l 17 494 l 22 505 l 29 513 l 43 521 l 55 523 l 73 525 l 91 530 l 103 531 l 112 530 z m 123 310 l 120 305 l 110 300 l 103 294 l 100 282 l 98 266 l 93 250 l 96 236 l 92 224 l 91 208 l 89 191 l 89 174 l 91 153 l 89 137 l 89 120 l 92 107 l 96 94 l 92 79 l 97 66 l 97 43 l 98 34 l 102 21 l 103 7 l 107 -3 l 107 -12 l 111 -21 l 106 -30 l 100 -32 l 96 -30 l 92 -20 l 89 -9 l 87 0 l 82 10 l 82 19 l 75 34 l 75 48 l 73 58 l 73 72 l 70 84 l 68 114 l 66 122 l 65 141 l 66 154 l 65 168 l 65 180 l 60 190 l 52 195 l 46 201 l 40 220 l 38 231 l 38 270 l 40 287 l 37 305 l 36 317 l 32 328 l 36 340 l 42 349 l 50 352 l 61 355 l 73 352 l 82 344 l 91 337 l 102 337 l 110 329 l 117 324 l 123 319 z"},"y":{"x_min":0,"x_max":360,"ha":360,"o":"m 25 220 l 20 215 l 14 217 l 8 222 l 15 229 l 22 227 z m 306 40 l 305 26 l 301 0 l 301 -11 l 298 -25 l 299 -38 l 297 -50 l 292 -57 l 292 -71 l 289 -88 l 284 -103 l 276 -120 l 274 -129 l 269 -136 l 264 -145 l 257 -155 l 247 -165 l 244 -173 l 235 -182 l 227 -191 l 218 -199 l 209 -206 l 197 -211 l 190 -218 l 177 -223 l 160 -227 l 144 -226 l 104 -219 l 87 -214 l 76 -212 l 65 -201 l 59 -199 l 54 -192 l 51 -180 l 50 -170 l 50 -151 l 51 -135 l 54 -128 l 57 -123 l 61 -120 l 65 -123 l 65 -129 l 64 -138 l 66 -147 l 66 -160 l 64 -168 l 69 -182 l 75 -188 l 83 -192 l 92 -199 l 100 -200 l 107 -200 l 117 -203 l 129 -203 l 143 -205 l 156 -201 l 166 -200 l 179 -203 l 186 -195 l 194 -189 l 203 -184 l 211 -178 l 223 -160 l 238 -143 l 239 -133 l 246 -126 l 250 -116 l 255 -109 l 255 -101 l 260 -87 l 265 -76 l 268 -62 l 272 -45 l 270 -34 l 275 -21 l 275 -4 l 276 11 l 278 26 l 275 44 l 271 57 l 268 66 l 262 74 l 259 77 l 254 74 l 245 66 l 237 58 l 225 54 l 216 47 l 207 42 l 197 40 l 192 35 l 179 32 l 165 27 l 149 27 l 133 33 l 118 40 l 110 41 l 104 49 l 98 51 l 87 60 l 75 67 l 68 80 l 62 90 l 58 100 l 54 114 l 51 131 l 51 148 l 45 164 l 45 180 l 42 190 l 40 206 l 36 220 l 27 234 l 24 245 l 20 258 l 22 267 l 24 275 l 30 284 l 39 291 l 52 296 l 66 294 l 77 291 l 89 282 l 96 272 l 102 259 l 112 239 l 117 222 l 119 198 l 118 183 l 120 165 l 125 163 l 129 148 l 134 138 l 135 130 l 143 123 l 155 116 l 169 111 l 181 116 l 193 118 l 204 123 l 214 130 l 227 133 l 245 132 l 253 139 l 259 148 l 264 154 l 264 168 l 262 183 l 259 201 l 255 219 l 252 237 l 252 250 l 245 274 l 237 287 l 237 297 l 241 307 l 248 314 l 260 312 l 267 307 l 271 299 l 277 290 l 282 282 l 285 273 l 291 262 l 294 250 l 297 239 l 299 224 l 297 210 l 297 197 l 299 180 l 298 167 l 299 153 l 301 141 l 302 126 l 301 112 l 302 96 l 305 82 l 301 67 l 304 54 z"},"@":{"x_min":0,"x_max":605,"ha":605,"o":"m 422 210 l 418 204 l 413 204 l 410 210 l 418 217 z m 562 250 l 560 236 l 556 227 l 559 207 l 558 195 l 555 183 l 552 183 l 554 177 l 547 170 l 546 165 l 540 160 l 538 147 l 531 134 l 521 120 l 513 110 l 502 108 l 497 101 l 486 90 l 470 81 l 457 82 l 441 75 l 416 72 l 398 71 l 377 73 l 365 75 l 351 78 l 342 81 l 336 84 l 327 89 l 320 94 l 316 97 l 309 112 l 306 121 l 301 127 l 298 131 l 296 152 l 290 172 l 278 193 l 280 199 l 278 207 l 276 217 l 270 214 l 262 213 l 233 213 l 229 216 l 223 220 l 216 226 l 210 233 l 208 240 l 207 248 l 210 257 l 212 264 l 217 270 l 223 277 l 231 282 l 238 285 l 245 287 l 255 286 l 266 288 l 271 287 l 276 287 l 280 292 l 279 299 l 277 306 l 273 313 l 270 318 l 263 325 l 250 329 l 243 332 l 235 332 l 228 335 l 223 340 l 221 345 l 222 351 l 226 356 l 232 360 l 238 365 l 247 368 l 256 368 l 265 372 l 274 373 l 288 370 l 299 367 l 307 362 l 312 356 l 318 351 l 325 343 l 327 338 l 329 329 l 329 320 l 328 311 l 327 298 l 327 289 l 325 281 l 321 273 l 320 262 l 317 250 l 316 239 l 314 226 l 315 226 l 314 209 l 316 198 l 317 186 l 316 169 l 314 155 l 316 138 l 319 131 l 324 124 l 330 110 l 335 104 l 347 98 l 354 95 l 360 92 l 372 87 l 385 88 l 400 96 l 415 108 l 428 127 l 437 143 l 444 151 l 448 160 l 456 166 l 468 171 l 480 180 l 486 187 l 494 194 l 502 199 l 509 208 l 516 219 l 523 236 l 530 257 l 528 276 l 526 299 l 527 312 l 523 322 l 523 329 l 517 341 l 511 351 l 507 361 l 499 370 l 496 380 l 488 388 l 462 418 l 447 430 l 425 444 l 398 456 l 381 460 l 370 459 l 364 461 l 359 463 l 352 465 l 345 469 l 338 471 l 331 471 l 321 475 l 296 472 l 283 471 l 270 471 l 257 472 l 244 467 l 228 463 l 221 463 l 216 465 l 215 455 l 213 450 l 209 447 l 206 447 l 194 443 l 182 440 l 177 436 l 161 433 l 143 431 l 118 412 l 93 383 l 79 358 l 78 354 l 78 349 l 76 345 l 71 340 l 69 330 l 60 315 l 62 280 l 61 273 l 62 256 l 72 204 l 86 173 l 100 149 l 105 145 l 108 142 l 109 135 l 137 103 l 160 89 l 169 83 l 174 77 l 189 74 l 204 70 l 205 68 l 212 65 l 220 62 l 223 58 l 225 54 l 227 49 l 226 43 l 220 40 l 214 39 l 208 40 l 204 42 l 197 45 l 193 50 l 177 58 l 166 67 l 139 79 l 121 92 l 92 120 l 74 141 l 69 144 l 69 148 l 45 187 l 40 199 l 35 208 l 31 214 l 30 222 l 22 260 l 21 283 l 20 288 l 20 294 l 22 299 l 26 329 l 34 354 l 42 373 l 59 399 l 82 428 l 83 433 l 88 435 l 89 433 l 104 447 l 123 458 l 139 470 l 156 481 l 175 489 l 188 491 l 201 502 l 212 493 l 215 484 l 228 487 l 234 492 l 242 494 l 260 493 l 277 493 l 297 496 l 312 500 l 325 495 l 352 493 l 396 477 l 415 472 l 440 459 l 474 437 l 509 404 l 515 395 l 520 388 l 522 382 l 527 377 l 528 372 l 534 364 l 549 337 l 549 332 l 548 329 l 549 324 l 557 311 l 556 288 l 562 269 z m 279 267 l 279 268 l 276 271 l 274 272 l 269 271 l 268 272 l 264 271 l 260 271 l 257 270 l 255 271 l 253 268 l 251 267 l 247 263 l 246 259 l 246 257 l 249 254 l 258 254 l 262 255 l 264 255 l 267 256 l 271 257 l 275 260 l 277 262 l 278 264 z"},".":{"x_min":0,"x_max":245,"ha":245,"o":"m 183 40 l 181 30 l 163 14 l 158 5 l 151 -5 l 147 -9 l 140 -19 l 121 -33 l 110 -34 l 96 -32 l 88 -25 l 83 -11 l 80 -5 l 68 5 l 65 11 l 65 18 l 62 26 l 61 36 l 73 47 l 96 60 l 117 70 l 144 70 l 156 65 l 160 58 l 171 56 l 181 50 z m 156 -38 l 151 -42 l 145 -34 l 150 -31 l 156 -33 z"},"p":{"x_min":0,"x_max":337,"ha":337,"o":"m 305 183 l 302 165 l 297 149 l 283 117 l 270 105 l 261 99 l 249 93 l 235 87 l 220 84 l 188 84 l 175 87 l 165 90 l 157 100 l 153 110 l 152 119 l 153 124 l 157 131 l 165 131 l 170 127 l 170 117 l 172 104 l 188 95 l 203 95 l 213 97 l 232 104 l 242 114 l 257 133 l 263 155 l 267 177 l 267 189 l 260 202 l 256 215 l 255 229 l 249 239 l 243 250 l 237 259 l 227 266 l 217 269 l 203 273 l 189 272 l 171 258 l 160 247 l 155 235 l 151 223 l 149 207 l 151 198 l 142 190 l 135 184 l 128 177 l 125 168 l 125 154 l 123 140 l 123 129 l 121 117 l 122 105 l 119 96 l 115 85 l 110 51 l 105 29 l 103 15 l 99 -3 l 97 -24 l 89 -43 l 88 -57 l 82 -73 l 77 -88 l 73 -107 l 69 -124 l 67 -139 l 66 -155 l 67 -174 l 68 -185 l 72 -195 l 70 -204 l 60 -213 l 55 -218 l 46 -207 l 43 -193 l 42 -180 l 42 -161 l 43 -147 l 45 -133 l 44 -117 l 47 -113 l 52 -100 l 57 -83 l 61 -73 l 65 -58 l 69 -45 l 74 -33 l 68 -16 l 67 4 l 67 19 l 68 30 l 65 47 l 67 77 l 74 90 l 70 109 l 73 130 l 73 148 l 75 163 l 73 180 l 74 192 l 70 204 l 63 209 l 66 220 l 72 232 l 73 246 l 70 259 l 70 270 l 66 280 l 51 303 l 45 332 l 44 341 l 44 350 l 51 360 l 61 371 l 77 371 l 108 363 l 122 359 l 130 342 l 133 325 l 137 318 l 151 319 l 165 325 l 201 330 l 216 329 l 233 324 l 242 319 l 254 313 l 267 302 l 284 274 l 288 259 l 294 242 l 298 228 l 301 215 l 303 201 z m 25 167 l 22 159 l 14 157 l 10 168 l 18 172 z m 45 -58 l 44 -66 l 37 -65 l 32 -60 l 40 -54 z"},"X":{"x_min":0,"x_max":463,"ha":463,"o":"m 234 510 l 227 501 l 221 511 l 229 523 z m 454 36 l 447 26 l 431 29 l 412 44 l 395 60 l 380 81 l 371 96 l 362 107 l 354 116 l 358 127 l 345 145 l 333 163 l 315 173 l 312 190 l 300 207 l 285 222 l 283 238 l 265 252 l 246 261 l 235 256 l 229 250 l 219 234 l 202 213 l 198 199 l 189 185 l 182 181 l 174 166 l 165 165 l 158 150 l 152 135 l 136 118 l 132 105 l 122 91 l 105 78 l 87 70 l 81 54 l 75 39 l 66 27 l 60 9 l 48 0 l 30 0 l 28 14 l 33 31 l 42 49 l 48 59 l 46 72 l 63 90 l 70 104 l 73 120 l 77 134 l 83 150 l 91 161 l 101 173 l 109 175 l 121 177 l 133 183 l 142 192 l 153 197 l 163 207 l 171 221 l 183 234 l 190 246 l 198 261 l 207 272 l 219 279 l 231 289 l 225 300 l 220 312 l 210 324 l 195 337 l 177 357 l 151 371 l 132 382 l 121 397 l 112 417 l 102 429 l 98 441 l 85 450 l 76 464 l 72 473 l 66 489 l 55 496 l 49 505 l 51 511 l 41 522 l 35 532 l 19 541 l 3 543 l -12 552 l -18 564 l -20 578 l -17 586 l -12 607 l 7 620 l 25 614 l 38 602 l 49 588 l 58 585 l 77 580 l 89 566 l 102 540 l 124 517 l 147 499 l 164 479 l 172 456 l 184 438 l 186 414 l 190 391 l 209 365 l 221 350 l 230 328 l 246 306 l 261 326 l 276 351 l 281 371 l 295 388 l 300 402 l 301 423 l 306 438 l 312 452 l 324 466 l 336 471 l 342 483 l 355 499 l 367 511 l 381 536 l 390 553 l 390 573 l 386 590 l 391 605 l 402 610 l 417 609 l 424 598 l 435 590 l 445 583 l 452 574 l 450 566 l 443 561 l 440 547 l 431 532 l 416 511 l 403 492 l 397 480 l 380 460 l 376 451 l 365 442 l 353 419 l 337 403 l 333 383 l 321 363 l 307 352 l 295 341 l 284 325 l 276 310 l 271 290 l 272 275 l 287 268 l 291 258 l 300 253 l 305 238 l 315 225 l 327 214 l 334 199 l 353 181 l 371 159 l 381 141 l 394 133 l 407 113 l 422 96 l 446 61 z m 154 226 l 147 223 l 137 230 l 144 241 l 153 235 z m 245 12 l 239 11 l 231 17 l 239 27 l 245 19 z"},"*":{"x_min":0,"x_max":383,"ha":383,"o":"m 352 594 l 347 590 l 336 588 l 316 588 l 287 585 l 262 588 l 216 588 l 200 589 l 218 574 l 241 553 l 261 530 l 270 510 l 278 491 l 275 483 l 265 480 l 257 487 l 246 502 l 218 534 l 202 555 l 188 562 l 189 536 l 186 520 l 186 500 l 188 459 l 192 446 l 185 438 l 178 434 l 170 441 l 163 456 l 160 478 l 160 505 l 155 539 l 156 554 l 144 532 l 126 505 l 114 482 l 104 459 l 91 450 l 80 452 l 73 460 l 73 474 l 84 494 l 98 515 l 123 543 l 140 569 l 138 581 l 50 585 l 33 594 l 31 602 l 36 613 l 50 617 l 67 618 l 87 617 l 113 614 l 119 612 l 135 615 l 123 629 l 103 642 l 82 659 l 74 674 l 72 692 l 82 701 l 98 702 l 121 680 l 132 673 l 140 671 l 143 675 l 144 695 l 148 715 l 156 734 l 170 742 l 185 740 l 190 729 l 196 712 l 196 699 l 192 655 l 189 641 l 204 657 l 220 682 l 238 703 l 255 716 l 272 712 l 290 701 l 287 692 l 278 690 l 263 690 l 248 685 l 238 671 l 223 654 l 211 634 l 207 615 l 217 612 l 248 609 l 272 607 l 299 611 l 327 610 l 345 609 z m 80 542 l 75 532 l 67 528 l 58 537 l 59 552 l 73 551 z"},"Y":{"x_min":0,"x_max":393,"ha":393,"o":"m 439 745 l 435 735 l 425 740 l 428 746 l 438 750 z m 438 715 l 435 704 l 430 692 l 420 681 l 407 671 l 398 657 l 389 650 l 381 640 l 372 622 l 363 607 l 356 589 l 349 572 l 340 552 l 335 532 l 330 510 l 330 470 l 329 450 l 321 429 l 317 412 l 303 395 l 300 386 l 289 378 l 275 362 l 265 342 l 259 319 l 254 309 l 251 290 l 246 270 l 240 245 l 237 220 l 231 201 l 227 178 l 222 161 l 214 139 l 209 114 l 205 86 l 205 67 l 201 47 l 205 28 l 206 19 l 203 12 l 205 -9 l 201 -23 l 197 -30 l 192 -32 l 187 -32 l 182 -27 l 177 -9 l 172 14 l 164 72 l 167 95 l 167 118 l 168 139 l 171 152 l 168 169 l 168 185 l 158 229 l 157 252 l 150 268 l 153 287 l 148 304 l 145 319 l 137 333 l 125 340 l 117 350 l 104 357 l 97 369 l 94 378 l 97 386 l 104 401 l 112 415 l 109 426 l 94 441 l 80 460 l 67 475 l 48 498 l 26 524 l 10 547 l 0 560 l -16 579 l -23 594 l -26 604 l -23 621 l -20 639 l -9 648 l -7 654 l 0 658 l 17 659 l 37 662 l 57 657 l 77 650 l 95 639 l 109 625 l 123 603 l 125 584 l 126 560 l 130 534 l 139 505 l 146 487 l 155 463 l 164 445 l 183 405 l 186 395 l 199 382 l 208 385 l 223 382 l 229 387 l 233 400 l 242 422 l 254 446 l 268 469 l 266 497 l 268 510 l 275 532 l 287 549 l 293 566 l 305 579 l 314 599 l 326 617 l 338 640 l 349 654 l 363 673 l 377 686 l 415 717 l 420 719 l 428 722 l 433 719 z"},"c":{"x_min":0,"x_max":303,"ha":303,"o":"m 280 267 l 278 254 l 273 244 l 260 221 l 246 217 l 227 217 l 211 222 l 198 224 l 181 229 l 166 229 l 156 225 l 138 215 l 128 204 l 117 190 l 110 176 l 106 164 l 103 156 l 96 150 l 92 130 l 91 115 l 91 87 l 97 72 l 110 59 l 121 54 l 138 49 l 149 44 l 186 44 l 202 47 l 211 51 l 218 56 l 227 55 l 232 47 l 230 40 l 220 32 l 207 26 l 190 19 l 175 14 l 162 12 l 137 10 l 114 12 l 100 18 l 87 24 l 73 33 l 63 37 l 57 51 l 51 63 l 47 77 l 45 95 l 40 115 l 37 137 l 37 153 l 36 174 l 37 190 l 40 207 l 47 221 l 50 231 l 50 250 l 54 264 l 73 281 l 82 285 l 89 287 l 107 294 l 119 298 l 130 299 l 148 303 l 166 310 l 180 314 l 195 318 l 209 317 l 225 314 l 240 309 l 255 298 l 267 290 l 277 280 z m 23 224 l 18 217 l 13 221 l 8 227 l 14 234 l 23 234 z"},"!":{"x_min":0,"x_max":249,"ha":249,"o":"m 170 589 l 167 575 l 162 560 l 158 544 l 156 528 l 153 507 l 151 483 l 148 455 l 147 431 l 144 404 l 142 352 l 142 328 l 138 281 l 137 257 l 138 234 l 140 213 l 140 157 l 128 133 l 120 129 l 112 133 l 107 144 l 110 155 l 106 176 l 105 199 l 100 244 l 96 259 l 92 277 l 92 317 l 89 332 l 89 349 l 93 359 l 91 371 l 91 399 l 88 412 l 87 426 l 80 441 l 74 478 l 74 498 l 70 523 l 73 542 l 73 561 l 70 574 l 66 589 l 61 604 l 61 617 l 63 627 l 66 636 l 77 645 l 91 650 l 107 650 l 125 649 l 137 643 l 148 636 l 156 627 l 163 617 l 167 607 z m 188 49 l 183 36 l 174 5 l 158 -1 l 149 -10 l 137 -23 l 120 -28 l 103 -32 l 91 -5 l 80 4 l 77 19 l 82 28 l 88 40 l 100 51 l 115 59 l 129 63 l 142 58 l 152 56 l 163 59 l 174 64 l 185 59 z"},"/":{"x_min":0,"x_max":473,"ha":473,"o":"m 473 737 l 471 727 l 466 717 l 457 702 l 444 697 l 432 684 l 420 663 l 395 615 l 360 553 l 338 527 l 328 502 l 315 474 l 302 449 l 290 422 l 275 395 l 257 367 l 245 349 l 241 335 l 234 326 l 216 294 l 202 270 l 190 254 l 180 232 l 172 216 l 158 187 l 145 164 l 130 135 l 115 105 l 107 86 l 102 70 l 92 54 l 82 35 l 75 15 l 69 0 l 62 -18 l 54 -34 l 40 -49 l 31 -63 l 23 -78 l 13 -90 l 2 -92 l 0 -85 l 1 -73 l 10 -53 l 22 -27 l 33 -4 l 50 19 l 63 47 l 76 77 l 91 107 l 98 127 l 115 170 l 132 206 l 144 237 l 158 267 l 173 297 l 186 329 l 205 370 l 238 452 l 250 475 l 262 502 l 271 528 l 285 550 l 295 568 l 323 625 l 346 664 l 360 692 l 362 705 l 365 730 l 361 749 l 353 763 l 352 777 l 361 786 l 380 790 l 397 787 l 406 780 l 415 774 l 426 778 l 441 775 l 457 768 l 471 757 z"},"[":{"x_min":0,"x_max":400,"ha":400,"o":"m 367 764 l 365 757 l 355 757 l 352 766 l 362 770 z m 433 728 l 432 730 l 425 724 l 419 716 l 406 715 l 395 710 l 374 707 l 352 707 l 326 702 l 306 694 l 284 702 l 268 694 l 250 700 l 237 693 l 229 681 l 229 655 l 224 635 l 223 615 l 220 591 l 218 572 l 218 558 l 214 544 l 214 530 l 215 513 l 210 498 l 210 481 l 208 460 l 206 432 l 205 405 l 203 379 l 205 360 l 205 345 l 203 325 l 199 305 l 197 287 l 195 264 l 192 241 l 190 198 l 186 180 l 185 162 l 186 144 l 182 125 l 178 103 l 176 85 l 172 70 l 169 53 l 169 42 l 167 30 l 164 10 l 162 -7 l 160 -22 l 162 -32 l 171 -40 l 182 -45 l 197 -49 l 213 -50 l 238 -51 l 261 -50 l 288 -54 l 306 -54 l 315 -58 l 337 -56 l 362 -58 l 381 -58 l 398 -59 l 412 -60 l 422 -60 l 426 -65 l 424 -73 l 416 -78 l 400 -81 l 377 -82 l 352 -87 l 326 -90 l 300 -92 l 280 -92 l 268 -96 l 252 -102 l 236 -97 l 228 -104 l 212 -104 l 190 -114 l 180 -122 l 180 -144 l 173 -162 l 167 -174 l 160 -184 l 160 -197 l 150 -201 l 145 -202 l 139 -198 l 135 -189 l 126 -153 l 124 -132 l 114 -118 l 96 -110 l 75 -111 l 57 -110 l 40 -107 l 25 -102 l 15 -94 l 7 -92 l 15 -74 l 26 -63 l 42 -58 l 53 -55 l 72 -54 l 94 -50 l 108 -45 l 118 -40 l 127 -28 l 130 -13 l 130 -3 l 131 10 l 131 23 l 135 33 l 134 53 l 134 107 l 135 125 l 137 148 l 135 171 l 137 196 l 140 218 l 140 237 l 141 255 l 148 274 l 154 291 l 158 309 l 157 331 l 158 346 l 154 361 l 153 381 l 148 402 l 148 421 l 146 437 l 146 474 l 145 492 l 143 512 l 143 527 l 141 549 l 140 568 l 137 590 l 135 609 l 139 624 l 139 640 l 137 656 l 139 669 l 132 690 l 128 701 l 131 712 l 131 731 l 134 751 l 138 768 l 144 782 l 148 804 l 148 817 l 155 829 l 172 835 l 187 836 l 205 832 l 218 826 l 230 806 l 234 796 l 236 760 l 260 758 l 277 750 l 293 756 l 312 755 l 338 751 l 352 750 l 372 745 l 390 743 l 405 742 l 419 742 l 429 737 z"},"6":{"x_min":0,"x_max":387,"ha":387,"o":"m 237 344 l 231 342 l 227 347 l 231 352 l 237 350 z m 355 222 l 354 213 l 350 192 l 346 167 l 345 153 l 340 144 l 329 129 l 329 120 l 320 105 l 306 84 l 299 72 l 291 65 l 276 51 l 255 45 l 234 36 l 209 35 l 162 30 l 152 33 l 138 32 l 125 35 l 110 37 l 97 45 l 82 54 l 61 84 l 47 105 l 40 127 l 33 148 l 31 157 l 36 164 l 38 176 l 43 184 l 47 206 l 46 227 l 46 294 l 50 322 l 54 352 l 57 380 l 65 405 l 70 432 l 80 454 l 92 482 l 107 497 l 125 519 l 137 542 l 143 552 l 151 570 l 162 581 l 167 594 l 177 602 l 185 617 l 189 632 l 193 645 l 203 663 l 217 672 l 232 671 l 245 672 l 262 663 l 269 659 l 280 643 l 277 629 l 272 622 l 268 621 l 257 613 l 245 602 l 231 581 l 207 547 l 200 543 l 188 524 l 175 501 l 160 477 l 129 426 l 125 415 l 119 409 l 115 394 l 106 381 l 106 371 l 102 363 l 103 355 l 98 342 l 93 310 l 91 261 l 89 235 l 89 206 l 87 178 l 92 167 l 100 146 l 110 129 l 120 114 l 135 100 l 158 88 l 183 87 l 195 87 l 211 90 l 225 93 l 234 101 l 246 119 l 255 139 l 257 169 l 254 192 l 246 208 l 235 224 l 223 235 l 204 243 l 190 239 l 180 229 l 166 220 l 160 215 l 153 213 l 138 212 l 133 213 l 128 216 l 123 224 l 121 231 l 125 250 l 134 270 l 147 284 l 162 303 l 175 313 l 190 322 l 208 326 l 220 328 l 232 324 l 249 324 l 257 319 l 282 309 l 290 307 l 301 299 l 323 290 l 337 275 l 346 262 l 350 252 l 354 230 z m 163 193 l 158 185 l 148 184 l 140 187 l 140 198 l 147 202 l 160 201 z"},"r":{"x_min":0,"x_max":248,"ha":248,"o":"m 248 270 l 241 268 l 232 269 l 223 269 l 210 267 l 194 258 l 186 247 l 170 240 l 163 232 l 150 220 l 144 208 l 140 197 l 140 182 l 136 171 l 132 159 l 128 146 l 127 132 l 127 100 l 126 86 l 122 72 l 121 58 l 119 43 l 119 29 l 112 14 l 103 6 l 90 2 l 81 0 l 73 2 l 66 10 l 62 19 l 58 29 l 59 40 l 58 56 l 58 79 l 57 90 l 58 102 l 59 118 l 59 132 l 61 148 l 62 164 l 61 182 l 61 197 l 59 209 l 58 220 l 50 234 l 43 245 l 39 257 l 38 270 l 40 282 l 45 291 l 53 297 l 67 302 l 82 309 l 95 307 l 112 300 l 114 290 l 121 277 l 121 257 l 127 251 l 133 250 l 141 252 l 151 260 l 164 268 l 179 275 l 192 282 l 207 284 l 223 288 l 232 288 l 244 284 l 248 277 z"},"2":{"x_min":0,"x_max":414,"ha":414,"o":"m -12 553 l -14 546 l -23 546 l -28 555 l -23 560 l -18 562 l -12 559 z m 370 494 l 369 472 l 362 453 l 353 444 l 337 417 l 329 411 l 311 394 l 305 387 l 296 382 l 290 371 l 273 360 l 259 348 l 241 329 l 228 317 l 222 307 l 210 298 l 209 283 l 196 279 l 189 268 l 177 251 l 167 234 l 161 222 l 144 200 l 134 183 l 113 139 l 104 131 l 98 120 l 80 102 l 74 99 l 75 95 l 67 81 l 55 67 l 56 63 l 99 63 l 115 60 l 125 63 l 140 62 l 161 63 l 184 60 l 212 56 l 228 51 l 237 54 l 259 51 l 267 52 l 288 51 l 310 48 l 327 51 l 333 47 l 339 47 l 348 42 l 347 35 l 346 33 l 338 33 l 323 30 l 300 33 l 273 34 l 249 34 l 219 30 l 182 34 l 120 34 l 92 30 l 83 30 l 61 26 l 48 25 l 37 17 l 24 19 l 16 24 l 14 29 l 14 42 l 11 54 l 20 66 l 34 86 l 46 108 l 60 125 l 71 137 l 85 163 l 98 183 l 107 205 l 135 251 l 152 280 l 168 299 l 179 310 l 185 320 l 194 330 l 207 342 l 241 382 l 258 397 l 269 411 l 279 419 l 287 430 l 295 442 l 300 455 l 307 467 l 311 512 l 310 535 l 302 551 l 286 560 l 277 568 l 265 569 l 250 572 l 230 567 l 217 559 l 200 551 l 189 540 l 175 530 l 153 522 l 138 516 l 130 514 l 121 509 l 89 507 l 80 508 l 65 513 l 56 522 l 50 530 l 48 542 l 50 553 l 55 559 l 64 573 l 74 583 l 80 592 l 93 602 l 108 611 l 124 619 l 134 620 l 140 628 l 166 633 l 194 641 l 212 645 l 235 642 l 255 642 l 277 639 l 296 632 l 314 622 l 325 618 l 329 610 l 347 591 l 357 576 l 367 562 l 369 546 l 369 531 l 367 516 z"},"{":{"x_min":0,"x_max":346,"ha":346,"o":"m 321 -108 l 319 -115 l 317 -124 l 309 -126 l 291 -123 l 272 -124 l 243 -126 l 222 -124 l 207 -117 l 201 -118 l 190 -115 l 170 -108 l 156 -104 l 146 -92 l 135 -82 l 125 -72 l 114 -49 l 103 -25 l 101 -3 l 103 12 l 94 34 l 92 58 l 85 71 l 84 99 l 80 117 l 79 155 l 77 190 l 74 213 l 67 240 l 67 267 l 62 287 l 58 300 l 52 312 l 52 326 l 48 335 l 38 333 l 29 337 l 10 337 l -3 336 l -22 336 l -25 340 l -30 345 l -29 357 l -22 362 l -15 359 l -10 364 l 1 367 l 9 371 l 19 371 l 35 367 l 44 371 l 49 377 l 53 389 l 56 417 l 51 489 l 51 515 l 53 538 l 60 565 l 57 581 l 65 604 l 71 634 l 81 650 l 102 657 l 114 657 l 119 662 l 125 663 l 129 671 l 137 680 l 147 689 l 159 705 l 163 718 l 172 727 l 180 733 l 190 733 l 202 727 l 210 717 l 237 707 l 240 699 l 249 697 l 251 690 l 257 680 l 264 677 l 268 667 l 270 656 l 268 644 l 263 635 l 257 629 l 250 628 l 231 632 l 215 639 l 203 639 l 195 635 l 185 627 l 177 621 l 174 615 l 168 611 l 159 599 l 153 592 l 145 579 l 141 565 l 137 549 l 132 532 l 131 514 l 129 492 l 124 472 l 120 449 l 118 426 l 118 404 l 110 390 l 105 374 l 94 376 l 83 370 l 69 369 l 59 362 l 55 350 l 67 345 l 89 325 l 98 297 l 109 277 l 111 261 l 113 224 l 116 194 l 117 164 l 117 130 l 118 93 l 122 70 l 128 42 l 134 16 l 143 -5 l 151 -23 l 161 -39 l 174 -52 l 187 -63 l 204 -76 l 224 -80 l 245 -86 l 264 -92 l 276 -91 l 286 -95 l 315 -101 z m 135 -94 l 134 -101 l 127 -100 l 127 -92 l 132 -87 z"},"9":{"x_min":0,"x_max":403,"ha":403,"o":"m 352 498 l 350 479 l 350 461 l 346 442 l 343 418 l 338 392 l 324 358 l 323 341 l 317 333 l 306 303 l 295 285 l 292 273 l 283 252 l 271 231 l 258 210 l 248 190 l 234 171 l 220 148 l 209 139 l 203 125 l 189 109 l 172 92 l 160 74 l 149 60 l 135 45 l 125 28 l 117 12 l 110 0 l 100 -11 l 96 -15 l 89 -11 l 92 -1 l 93 14 l 117 70 l 135 97 l 143 105 l 151 120 l 165 144 l 175 162 l 189 183 l 200 207 l 213 225 l 237 266 l 263 332 l 272 349 l 272 358 l 277 366 l 286 389 l 294 412 l 300 432 l 303 447 l 303 465 l 301 486 l 301 497 l 294 495 l 291 483 l 287 468 l 277 456 l 267 437 l 245 418 l 227 404 l 193 386 l 172 385 l 144 381 l 119 385 l 103 392 l 78 400 l 61 409 l 51 423 l 50 429 l 40 446 l 32 469 l 31 489 l 27 505 l 22 528 l 27 553 l 29 580 l 36 602 l 38 618 l 46 632 l 55 644 l 70 659 l 100 675 l 117 685 l 137 689 l 156 690 l 180 690 l 202 687 l 227 682 l 248 675 l 260 666 l 273 658 l 294 644 l 295 639 l 303 634 l 308 627 l 315 615 l 324 602 l 337 579 l 345 558 l 350 537 l 351 519 l 352 507 z m -42 529 l -45 523 l -54 519 l -60 521 l -61 528 l -57 537 l -47 537 z m 78 -9 l 74 -18 l 63 -11 l 65 -2 l 74 -2 z m 283 546 l 282 560 l 273 575 l 262 590 l 248 602 l 237 607 l 231 609 l 222 615 l 207 615 l 194 612 l 180 607 l 163 602 l 151 595 l 148 590 l 142 589 l 137 583 l 129 579 l 117 565 l 110 549 l 103 534 l 98 525 l 98 514 l 102 505 l 100 495 l 102 484 l 106 482 l 112 472 l 117 463 l 123 460 l 135 450 l 153 450 l 166 455 l 172 465 l 174 477 l 177 491 l 180 501 l 186 512 l 194 521 l 204 525 l 220 530 l 237 532 l 249 525 l 260 523 l 271 523 l 282 535 z"}," ":{"x_min":0,"x_max":280,"ha":280,"o":""},"I":{"x_min":0,"x_max":346,"ha":346,"o":"m 333 92 l 324 85 l 315 80 l 285 80 l 258 76 l 234 69 l 217 63 l 202 57 l 190 48 l 185 36 l 186 25 l 188 9 l 186 3 l 181 -1 l 177 -1 l 172 3 l 167 12 l 157 13 l 144 9 l 137 2 l 128 -6 l 114 -12 l 96 -17 l 82 -17 l 69 -12 l 55 -3 l 51 9 l 40 17 l 32 27 l 31 48 l 37 66 l 50 80 l 63 91 l 82 108 l 105 117 l 126 117 l 137 119 l 147 128 l 153 129 l 157 137 l 153 159 l 152 173 l 148 191 l 149 215 l 148 230 l 151 246 l 148 265 l 147 283 l 147 297 l 143 328 l 143 417 l 137 426 l 147 439 l 142 476 l 142 527 l 138 543 l 143 561 l 130 560 l 115 557 l 103 557 l 63 550 l 52 550 l 42 545 l 22 542 l 6 542 l -10 548 l -18 554 l -23 565 l -20 579 l -13 588 l 1 593 l 18 589 l 33 583 l 45 583 l 65 580 l 92 580 l 119 579 l 140 579 l 140 591 l 144 601 l 143 608 l 144 616 l 138 631 l 138 648 l 144 657 l 140 674 l 151 684 l 167 688 l 181 690 l 195 688 l 198 672 l 200 658 l 203 647 l 202 633 l 203 619 l 195 606 l 194 596 l 198 589 l 208 588 l 227 588 l 245 584 l 271 584 l 286 582 l 301 582 l 305 579 l 305 574 l 294 571 l 271 573 l 254 571 l 234 571 l 213 568 l 198 565 l 186 557 l 186 541 l 185 520 l 181 499 l 183 482 l 179 469 l 185 453 l 180 430 l 180 413 l 179 385 l 174 371 l 177 361 l 177 339 l 174 320 l 177 299 l 175 272 l 175 205 l 172 184 l 174 161 l 177 137 l 194 133 l 209 132 l 226 128 l 245 119 l 260 118 l 285 113 l 303 104 l 314 106 l 327 104 l 333 100 z m 354 131 l 347 126 l 340 136 l 346 143 l 354 138 z"},"H":{"x_min":0,"x_max":410,"ha":410,"o":"m 360 9 l 359 -4 l 351 -13 l 340 -15 l 326 -1 l 314 14 l 304 36 l 296 55 l 293 70 l 293 82 l 289 97 l 281 130 l 276 157 l 281 171 l 275 179 l 276 189 l 276 206 l 277 227 l 276 252 l 282 273 l 280 296 l 281 322 l 259 328 l 239 332 l 216 333 l 185 333 l 164 335 l 156 337 l 128 333 l 110 330 l 102 322 l 102 303 l 104 285 l 105 243 l 104 216 l 104 183 l 100 171 l 102 156 l 97 147 l 100 133 l 97 107 l 93 97 l 95 84 l 91 60 l 90 47 l 91 41 l 90 18 l 93 -1 l 97 -16 l 104 -32 l 104 -42 l 100 -43 l 93 -41 l 87 -33 l 87 -25 l 81 -16 l 76 5 l 73 13 l 74 27 l 74 42 l 72 58 l 78 78 l 73 87 l 78 104 l 79 266 l 73 281 l 78 296 l 73 300 l 72 310 l 68 328 l 56 341 l 42 352 l 36 363 l 36 372 l 40 387 l 49 395 l 64 400 l 73 408 l 74 431 l 76 456 l 74 491 l 72 506 l 74 524 l 79 539 l 72 551 l 74 566 l 78 584 l 74 602 l 72 649 l 76 666 l 91 678 l 115 681 l 134 678 l 155 663 l 162 644 l 160 620 l 151 599 l 138 572 l 125 537 l 119 498 l 119 470 l 113 427 l 113 414 l 106 404 l 113 395 l 128 390 l 151 385 l 179 380 l 207 377 l 233 372 l 254 371 l 273 366 l 290 366 l 291 385 l 298 401 l 293 415 l 296 438 l 296 459 l 298 487 l 300 519 l 304 551 l 308 576 l 312 597 l 318 618 l 318 632 l 323 649 l 323 666 l 327 678 l 336 687 l 345 686 l 349 680 l 350 673 l 346 663 l 344 648 l 341 627 l 337 609 l 331 581 l 327 552 l 328 534 l 323 502 l 327 486 l 323 470 l 323 395 l 318 357 l 318 327 l 319 300 l 321 270 l 322 244 l 321 217 l 319 184 l 322 157 l 323 129 l 328 107 l 333 82 l 340 60 l 345 41 l 355 26 z m 286 56 l 281 51 l 275 54 l 275 60 l 280 65 l 286 63 z m 53 -108 l 49 -116 l 36 -110 l 42 -101 l 50 -102 z"},"4":{"x_min":0,"x_max":446,"ha":446,"o":"m 378 367 l 376 364 l 368 366 l 368 371 l 375 372 z m 421 340 l 420 333 l 412 326 l 401 326 l 395 327 l 384 326 l 376 321 l 370 317 l 366 314 l 345 307 l 326 303 l 308 299 l 288 296 l 276 295 l 271 285 l 271 197 l 273 175 l 266 164 l 253 157 l 250 155 l 251 146 l 256 132 l 256 114 l 243 104 l 243 90 l 247 72 l 251 47 l 255 35 l 253 24 l 253 12 l 250 -2 l 248 -13 l 246 -19 l 239 -19 l 234 -18 l 232 -13 l 225 4 l 225 21 l 232 36 l 228 55 l 227 73 l 223 88 l 224 107 l 223 132 l 218 148 l 218 170 l 216 194 l 215 220 l 216 245 l 218 268 l 213 281 l 211 289 l 201 290 l 190 294 l 167 295 l 150 298 l 126 295 l 107 294 l 96 287 l 84 280 l 71 272 l 54 264 l 45 262 l 39 266 l 31 268 l 25 276 l 26 289 l 24 304 l 29 319 l 36 335 l 39 347 l 47 366 l 54 378 l 67 401 l 73 424 l 80 445 l 81 461 l 81 477 l 85 491 l 95 505 l 103 512 l 110 524 l 122 544 l 130 558 l 135 575 l 144 603 l 150 615 l 149 627 l 151 630 l 153 640 l 155 654 l 165 664 l 179 672 l 188 673 l 196 672 l 204 672 l 215 667 l 230 659 l 248 645 l 256 630 l 253 621 l 250 611 l 246 606 l 242 597 l 230 585 l 219 570 l 209 555 l 196 542 l 186 525 l 176 509 l 168 500 l 163 498 l 160 486 l 155 474 l 151 459 l 149 447 l 133 422 l 128 408 l 119 394 l 110 382 l 103 372 l 99 359 l 96 350 l 98 344 l 104 341 l 116 337 l 131 335 l 145 335 l 159 333 l 173 335 l 187 336 l 197 337 l 202 341 l 202 358 l 197 371 l 200 395 l 210 412 l 209 429 l 209 452 l 210 460 l 210 475 l 213 487 l 220 492 l 228 492 l 236 487 l 243 477 l 253 469 l 260 460 l 262 446 l 262 415 l 261 403 l 261 389 l 262 378 l 262 367 l 261 359 l 265 354 l 271 344 l 279 342 l 290 344 l 302 347 l 378 347 l 384 352 l 399 349 l 412 354 l 412 347 l 420 344 z"},"~":{"x_min":0,"x_max":362,"ha":362,"o":"m 351 553 l 349 503 l 344 483 l 331 459 l 320 442 l 302 424 l 279 414 l 234 407 l 212 406 l 195 414 l 181 429 l 169 441 l 169 440 l 166 433 l 161 430 l 152 425 l 143 428 l 132 433 l 124 443 l 121 452 l 122 460 l 131 466 l 139 466 l 147 470 l 144 477 l 132 497 l 124 508 l 109 522 l 89 531 l 69 523 l 52 512 l 41 491 l 32 470 l 30 447 l 29 425 l 29 410 l 20 397 l 9 393 l 7 401 l 12 412 l 13 429 l 17 442 l 17 460 l 22 477 l 24 497 l 30 515 l 36 536 l 53 553 l 81 563 l 101 568 l 129 571 l 156 564 l 174 549 l 182 536 l 192 517 l 210 481 l 223 475 l 241 477 l 254 483 l 264 491 l 271 503 l 274 517 l 280 530 l 278 546 l 286 562 l 302 576 l 328 577 l 346 571 z m 11 327 l 3 320 l -7 320 l -5 333 l 3 337 l 10 336 z"},"D":{"x_min":0,"x_max":416,"ha":416,"o":"m 240 464 l 235 459 l 217 457 l 209 468 l 235 470 z m 372 385 l 367 364 l 365 336 l 359 309 l 362 289 l 364 260 l 358 240 l 358 213 l 346 190 l 337 167 l 301 108 l 284 94 l 262 79 l 240 71 l 194 65 l 168 68 l 147 65 l 134 64 l 124 68 l 119 72 l 114 79 l 119 93 l 131 107 l 146 112 l 155 109 l 173 123 l 190 130 l 208 132 l 223 144 l 240 151 l 256 160 l 273 180 l 287 203 l 301 222 l 308 241 l 305 263 l 309 283 l 305 300 l 302 317 l 308 337 l 306 352 l 311 372 l 309 396 l 304 419 l 297 450 l 288 479 l 280 492 l 278 509 l 267 528 l 252 542 l 235 551 l 198 549 l 176 542 l 165 528 l 161 506 l 154 486 l 148 460 l 143 437 l 139 410 l 135 394 l 132 381 l 135 362 l 139 344 l 129 335 l 134 324 l 130 310 l 130 291 l 124 276 l 123 254 l 123 238 l 118 222 l 114 210 l 114 195 l 111 177 l 104 152 l 104 139 l 103 107 l 102 92 l 103 77 l 107 58 l 114 49 l 113 37 l 107 24 l 98 22 l 89 24 l 82 28 l 78 33 l 73 44 l 69 70 l 68 90 l 69 111 l 68 132 l 68 147 l 72 174 l 74 201 l 79 225 l 81 244 l 85 264 l 85 291 l 87 322 l 91 349 l 87 364 l 85 387 l 88 417 l 95 441 l 95 460 l 102 495 l 102 514 l 98 529 l 99 542 l 91 552 l 87 565 l 85 576 l 88 595 l 97 604 l 119 612 l 140 622 l 163 629 l 185 630 l 200 630 l 238 622 l 255 620 l 268 613 l 271 606 l 286 603 l 301 590 l 314 579 l 324 558 l 333 542 l 339 523 l 346 509 l 353 489 l 362 465 l 365 446 l 367 423 l 372 404 z m 2 417 l -8 410 l -20 414 l -10 422 z"},"^":{"x_min":0,"x_max":503,"ha":503,"o":"m 418 340 l 415 338 l 408 331 l 395 329 l 380 330 l 366 333 l 363 336 l 361 336 l 357 340 l 351 343 l 343 351 l 338 357 l 336 361 l 332 362 l 325 372 l 319 375 l 315 378 l 309 384 l 303 386 l 291 392 l 289 395 l 286 398 l 280 402 l 275 406 l 271 411 l 269 415 l 261 423 l 260 426 l 258 428 l 255 432 l 252 433 l 253 441 l 246 445 l 248 447 l 245 450 l 243 454 l 242 457 l 237 461 l 237 466 l 231 468 l 228 470 l 222 475 l 215 472 l 211 470 l 213 467 l 208 464 l 208 461 l 207 461 l 205 456 l 204 450 l 204 449 l 201 447 l 201 445 l 200 438 l 200 435 l 197 432 l 199 429 l 196 425 l 198 418 l 198 412 l 197 403 l 194 392 l 185 383 l 184 378 l 183 374 l 183 369 l 179 367 l 179 364 l 177 358 l 179 351 l 177 346 l 174 342 l 169 336 l 163 333 l 153 329 l 143 328 l 136 323 l 121 322 l 111 322 l 100 325 l 97 327 l 90 327 l 85 331 l 81 333 l 81 338 l 77 342 l 77 352 l 81 359 l 80 364 l 82 368 l 87 369 l 87 374 l 94 376 l 97 381 l 101 387 l 107 389 l 113 398 l 115 408 l 119 409 l 118 416 l 121 426 l 121 432 l 114 442 l 109 450 l 108 460 l 107 466 l 109 468 l 108 472 l 108 474 l 119 483 l 119 486 l 125 490 l 133 499 l 143 508 l 145 515 l 146 520 l 145 524 l 149 537 l 152 549 l 158 564 l 160 572 l 163 576 l 162 589 l 160 601 l 162 612 l 168 621 l 173 628 l 180 631 l 182 638 l 187 642 l 189 646 l 187 649 l 188 656 l 183 664 l 184 672 l 180 675 l 182 682 l 187 682 l 195 686 l 199 686 l 202 690 l 214 691 l 224 688 l 232 680 l 236 678 l 242 671 l 249 662 l 252 653 l 259 643 l 267 636 l 268 632 l 274 627 l 277 622 l 284 616 l 283 610 l 290 601 l 291 597 l 295 592 l 298 583 l 304 576 l 307 564 l 310 556 l 314 544 l 314 539 l 318 533 l 323 521 l 328 511 l 329 502 l 333 496 l 336 491 l 340 483 l 343 475 l 351 468 l 350 457 l 352 450 l 357 443 l 363 436 l 368 426 l 372 420 l 376 411 l 382 402 l 389 392 l 394 383 l 397 369 l 401 368 l 411 354 l 411 350 l 415 347 z m 246 249 l 244 245 l 234 247 l 228 253 l 236 255 l 246 255 z"},"0":{"x_min":0,"x_max":462,"ha":462,"o":"m 58 530 l 50 528 l 44 532 l 49 540 l 58 537 z m 427 310 l 426 289 l 418 275 l 417 260 l 417 251 l 412 242 l 409 222 l 412 215 l 409 204 l 404 183 l 403 164 l 396 141 l 392 122 l 382 97 l 381 89 l 374 84 l 369 74 l 356 65 l 349 48 l 344 42 l 332 39 l 324 34 l 322 28 l 296 15 l 272 7 l 252 7 l 241 12 l 230 12 l 213 19 l 202 19 l 190 25 l 164 37 l 155 43 l 142 56 l 118 72 l 111 85 l 106 89 l 102 95 l 96 107 l 86 132 l 77 163 l 65 191 l 58 223 l 50 255 l 46 291 l 41 320 l 37 340 l 37 359 l 35 375 l 37 388 l 42 410 l 42 419 l 47 429 l 49 457 l 56 486 l 63 505 l 69 531 l 88 576 l 97 595 l 110 613 l 123 625 l 127 633 l 146 645 l 167 659 l 184 657 l 212 656 l 227 645 l 238 639 l 247 632 l 250 627 l 258 614 l 259 609 l 257 600 l 253 592 l 245 588 l 226 574 l 206 554 l 187 536 l 181 528 l 175 525 l 171 517 l 167 512 l 155 494 l 144 475 l 127 442 l 118 417 l 106 396 l 97 384 l 95 362 l 95 337 l 92 317 l 93 282 l 96 252 l 102 222 l 110 195 l 115 177 l 118 167 l 123 148 l 130 126 l 141 109 l 155 90 l 170 77 l 185 66 l 201 58 l 221 51 l 234 49 l 243 47 l 268 40 l 291 47 l 309 51 l 328 66 l 349 81 l 350 89 l 363 102 l 372 127 l 374 144 l 379 148 l 378 159 l 382 168 l 387 195 l 387 227 l 384 247 l 381 269 l 387 288 l 391 315 l 391 343 l 381 396 l 377 411 l 377 420 l 365 440 l 358 459 l 349 477 l 342 482 l 340 490 l 324 505 l 314 521 l 307 537 l 303 553 l 303 569 l 304 577 l 309 581 l 313 581 l 317 579 l 322 569 l 332 545 l 344 525 l 359 512 l 369 500 l 373 493 l 389 472 l 399 453 l 404 448 l 408 438 l 412 419 l 418 403 l 423 385 l 427 365 l 424 347 l 427 340 z m 198 180 l 197 174 l 190 174 l 185 180 l 192 186 z"},"F":{"x_min":0,"x_max":346,"ha":346,"o":"m 378 656 l 375 644 l 366 635 l 357 629 l 345 628 l 312 632 l 287 639 l 266 639 l 252 635 l 237 627 l 222 621 l 218 615 l 208 611 l 183 592 l 171 579 l 163 565 l 157 549 l 148 532 l 146 514 l 148 492 l 143 472 l 139 449 l 137 426 l 137 404 l 135 387 l 140 377 l 150 371 l 169 367 l 201 371 l 220 371 l 237 367 l 259 364 l 269 359 l 283 362 l 296 357 l 298 345 l 282 336 l 245 336 l 218 337 l 180 337 l 162 333 l 143 335 l 135 326 l 134 312 l 122 300 l 111 291 l 109 277 l 111 261 l 113 224 l 116 194 l 117 164 l 117 130 l 118 93 l 123 58 l 125 28 l 134 9 l 140 -6 l 140 -24 l 134 -38 l 131 -47 l 125 -53 l 118 -55 l 111 -51 l 95 -36 l 85 -24 l 77 -6 l 75 12 l 80 24 l 88 35 l 85 69 l 80 118 l 79 155 l 77 190 l 74 213 l 67 240 l 67 267 l 62 287 l 60 321 l 53 389 l 56 417 l 51 489 l 51 515 l 53 538 l 60 565 l 57 581 l 65 604 l 71 634 l 81 650 l 98 657 l 118 657 l 127 662 l 137 663 l 143 671 l 157 680 l 172 689 l 192 705 l 201 718 l 215 727 l 229 733 l 245 733 l 265 727 l 278 717 l 322 707 l 328 699 l 343 697 l 347 690 l 357 680 l 368 677 l 375 667 z"},"`":{"x_min":0,"x_max":258,"ha":258,"o":"m 208 419 l 197 414 l 187 417 l 178 422 l 149 434 l 140 436 l 127 442 l 111 448 l 92 451 l 81 459 l 69 466 l 59 479 l 60 491 l 60 501 l 53 506 l 50 515 l 50 524 l 54 531 l 68 540 l 81 540 l 90 536 l 106 525 l 118 512 l 134 500 l 151 482 l 180 457 l 194 444 l 206 432 z"},"k":{"x_min":0,"x_max":298,"ha":298,"o":"m 305 12 l 303 5 l 296 4 l 283 4 l 269 10 l 254 18 l 250 27 l 238 36 l 228 50 l 215 62 l 197 88 l 190 100 l 178 110 l 164 120 l 153 130 l 140 138 l 120 157 l 103 176 l 100 109 l 98 96 l 98 51 l 95 37 l 93 4 l 90 -11 l 81 -51 l 80 -64 l 75 -76 l 66 -78 l 58 -76 l 56 -66 l 56 -49 l 66 -28 l 71 -10 l 71 7 l 73 27 l 72 45 l 73 69 l 73 96 l 72 123 l 68 156 l 58 178 l 57 201 l 57 229 l 58 247 l 60 264 l 56 282 l 56 303 l 57 326 l 58 336 l 57 355 l 52 371 l 51 389 l 51 419 l 45 442 l 48 472 l 37 489 l 38 515 l 38 532 l 36 549 l 40 572 l 37 592 l 43 606 l 53 617 l 63 630 l 74 643 l 88 648 l 103 645 l 113 640 l 127 632 l 139 620 l 148 606 l 153 594 l 154 581 l 149 567 l 145 553 l 139 535 l 131 519 l 130 502 l 125 487 l 120 465 l 122 449 l 115 429 l 104 412 l 104 387 l 102 378 l 103 363 l 103 313 l 102 299 l 105 276 l 103 253 l 139 273 l 153 287 l 163 291 l 173 299 l 199 310 l 208 318 l 218 319 l 228 324 l 240 326 l 254 327 l 265 326 l 275 322 l 282 314 l 284 307 l 280 299 l 273 294 l 259 289 l 245 282 l 232 276 l 223 267 l 210 259 l 200 258 l 190 249 l 177 240 l 164 229 l 150 216 l 143 206 l 139 198 l 139 190 l 146 180 l 153 175 l 167 164 l 177 150 l 190 138 l 222 100 l 229 87 l 242 73 l 252 60 l 263 54 l 275 44 l 287 37 l 293 27 l 302 18 z"},"u":{"x_min":0,"x_max":338,"ha":338,"o":"m 332 56 l 327 48 l 321 44 l 313 43 l 306 45 l 302 50 l 294 59 l 284 67 l 277 74 l 264 102 l 262 114 l 259 124 l 256 132 l 252 132 l 247 126 l 241 116 l 238 107 l 235 97 l 230 87 l 224 78 l 217 70 l 209 59 l 196 52 l 186 47 l 167 42 l 152 41 l 140 43 l 127 50 l 111 54 l 100 63 l 87 70 l 79 78 l 68 88 l 64 103 l 58 119 l 54 135 l 50 154 l 46 165 l 49 180 l 44 198 l 43 208 l 42 223 l 40 236 l 38 245 l 39 258 l 42 268 l 52 279 l 65 284 l 75 285 l 88 283 l 100 277 l 109 270 l 117 258 l 122 247 l 126 232 l 124 221 l 117 212 l 111 201 l 110 187 l 105 171 l 105 157 l 106 138 l 111 118 l 118 109 l 126 96 l 140 86 l 154 79 l 171 74 l 184 79 l 197 86 l 207 96 l 217 112 l 224 125 l 230 138 l 235 152 l 239 170 l 241 191 l 237 209 l 234 225 l 231 232 l 233 245 l 232 258 l 234 268 l 237 277 l 239 290 l 244 298 l 250 302 l 259 299 l 263 291 l 264 284 l 268 274 l 267 264 l 267 249 l 263 234 l 263 227 l 259 221 l 261 209 l 263 195 l 268 182 l 269 162 l 274 149 l 278 132 l 280 118 l 285 103 l 291 92 l 299 82 l 307 73 l 329 63 z m 164 183 l 162 160 l 148 146 l 136 157 l 128 174 l 129 192 l 124 202 l 130 208 l 140 207 l 150 201 z"},"]":{"x_min":0,"x_max":400,"ha":400,"o":"m 414 726 l 406 708 l 395 697 l 379 692 l 368 689 l 349 688 l 327 684 l 313 679 l 303 674 l 294 662 l 291 647 l 291 637 l 290 624 l 290 611 l 286 601 l 287 581 l 287 527 l 286 509 l 284 486 l 286 463 l 284 438 l 281 416 l 281 397 l 280 379 l 273 360 l 267 343 l 263 325 l 264 303 l 263 288 l 267 273 l 268 253 l 273 232 l 273 213 l 275 197 l 275 160 l 276 142 l 278 122 l 278 107 l 280 85 l 281 66 l 284 44 l 286 25 l 282 10 l 282 -6 l 284 -22 l 282 -35 l 285 -49 l 287 -64 l 290 -81 l 291 -99 l 291 -118 l 283 -134 l 277 -148 l 273 -170 l 273 -183 l 266 -195 l 249 -201 l 234 -202 l 216 -198 l 203 -192 l 191 -172 l 187 -162 l 185 -126 l 161 -124 l 144 -116 l 128 -122 l 109 -121 l 83 -117 l 69 -116 l 49 -111 l 31 -109 l 16 -108 l 2 -108 l -8 -103 l -12 -94 l -11 -96 l -4 -90 l 2 -82 l 15 -81 l 26 -76 l 47 -73 l 69 -73 l 95 -68 l 115 -60 l 137 -68 l 153 -60 l 171 -66 l 184 -59 l 192 -47 l 192 -21 l 197 -1 l 198 19 l 201 43 l 203 62 l 203 76 l 207 90 l 207 104 l 206 121 l 211 136 l 211 153 l 213 174 l 215 202 l 216 229 l 218 255 l 216 274 l 216 289 l 218 309 l 222 329 l 224 347 l 226 370 l 229 393 l 231 436 l 235 454 l 236 472 l 235 490 l 239 509 l 243 531 l 245 549 l 249 564 l 252 581 l 252 592 l 254 604 l 257 624 l 259 641 l 261 656 l 259 666 l 250 674 l 239 679 l 224 683 l 208 684 l 183 685 l 160 684 l 133 688 l 115 688 l 106 692 l 84 690 l 59 692 l 40 692 l 23 693 l 9 694 l -1 694 l -5 699 l -3 707 l 5 712 l 21 715 l 44 716 l 69 721 l 95 724 l 121 726 l 141 726 l 153 730 l 169 736 l 185 731 l 193 738 l 209 738 l 231 748 l 241 756 l 241 778 l 248 796 l 254 808 l 261 818 l 261 831 l 271 835 l 276 836 l 282 832 l 286 823 l 295 787 l 297 766 l 307 752 l 325 744 l 346 745 l 364 744 l 381 741 l 396 736 l 406 728 z m 69 -132 l 59 -136 l 54 -130 l 56 -123 l 66 -123 z"},"U":{"x_min":0,"x_max":435,"ha":435,"o":"m 428 472 l 426 465 l 417 465 l 413 474 l 418 484 l 426 482 z m 383 482 l 381 452 l 382 435 l 379 408 l 379 390 l 373 369 l 373 350 l 367 336 l 368 321 l 360 303 l 363 294 l 359 287 l 356 272 l 355 247 l 346 230 l 341 212 l 337 193 l 330 185 l 323 165 l 313 144 l 298 123 l 281 105 l 262 90 l 240 82 l 217 77 l 196 74 l 170 74 l 143 77 l 125 82 l 109 92 l 93 101 l 81 116 l 72 133 l 65 152 l 58 169 l 56 190 l 53 210 l 51 231 l 53 258 l 53 280 l 55 304 l 60 318 l 56 327 l 56 341 l 63 355 l 65 375 l 64 390 l 68 412 l 73 433 l 73 452 l 78 472 l 78 493 l 68 510 l 64 529 l 63 539 l 68 557 l 76 569 l 83 572 l 100 580 l 120 583 l 139 579 l 155 569 l 164 562 l 169 555 l 179 547 l 184 534 l 183 516 l 173 498 l 162 482 l 151 461 l 147 446 l 141 418 l 130 394 l 123 367 l 116 342 l 109 319 l 102 294 l 101 266 l 95 244 l 100 215 l 101 179 l 105 155 l 115 139 l 130 127 l 138 120 l 151 116 l 176 111 l 193 109 l 211 110 l 243 116 l 268 132 l 282 147 l 293 164 l 304 178 l 305 192 l 312 201 l 321 222 l 327 240 l 331 258 l 341 275 l 340 285 l 341 295 l 349 305 l 346 322 l 353 349 l 356 372 l 363 392 l 360 415 l 364 435 l 365 459 l 364 478 l 364 497 l 368 512 l 363 519 l 365 530 l 363 542 l 364 553 l 365 567 l 367 581 l 367 589 l 376 592 l 379 588 l 376 574 l 378 553 l 378 542 l 381 515 z"},"o":{"x_min":0,"x_max":316,"ha":316,"o":"m 185 259 l 179 257 l 173 262 l 177 266 l 183 265 z m 285 150 l 283 133 l 280 117 l 273 105 l 268 92 l 260 78 l 248 70 l 240 58 l 224 50 l 208 44 l 189 42 l 170 39 l 152 37 l 133 41 l 117 44 l 102 50 l 90 55 l 77 67 l 66 80 l 54 87 l 46 100 l 40 114 l 33 127 l 32 142 l 31 161 l 33 175 l 38 194 l 38 213 l 44 232 l 54 262 l 65 272 l 67 283 l 77 291 l 90 300 l 102 307 l 120 311 l 132 309 l 142 303 l 148 292 l 150 282 l 149 269 l 141 259 l 132 247 l 126 234 l 125 221 l 115 212 l 110 194 l 105 182 l 104 164 l 104 149 l 107 133 l 114 120 l 122 110 l 133 102 l 143 92 l 156 88 l 172 87 l 174 84 l 192 85 l 208 88 l 226 100 l 237 111 l 245 127 l 248 142 l 248 162 l 243 174 l 235 189 l 226 201 l 215 212 l 203 221 l 194 228 l 187 234 l 185 244 l 189 251 l 198 251 l 207 245 l 219 240 l 227 234 l 243 223 l 254 215 l 261 204 l 270 191 l 278 179 l 282 168 z"},"N":{"x_min":0,"x_max":476,"ha":476,"o":"m 299 579 l 287 572 l 287 585 l 298 584 z m 478 662 l 477 648 l 477 632 l 471 621 l 473 613 l 469 599 l 458 585 l 449 572 l 445 543 l 445 525 l 440 500 l 441 487 l 436 465 l 435 445 l 426 427 l 422 404 l 420 381 l 390 318 l 380 310 l 377 295 l 368 281 l 364 258 l 359 244 l 359 225 l 347 194 l 339 179 l 336 156 l 334 137 l 329 119 l 330 104 l 327 88 l 329 79 l 321 69 l 312 49 l 304 49 l 294 51 l 290 65 l 271 75 l 264 93 l 260 108 l 249 126 l 249 138 l 239 150 l 248 168 l 238 186 l 235 213 l 220 245 l 215 273 l 210 295 l 203 330 l 199 342 l 194 359 l 186 380 l 172 422 l 156 446 l 145 426 l 141 418 l 141 362 l 137 335 l 140 310 l 135 281 l 130 250 l 122 235 l 118 210 l 114 180 l 112 123 l 105 109 l 109 96 l 98 82 l 80 74 l 57 73 l 39 84 l 34 102 l 27 124 l 22 144 l 22 160 l 35 180 l 44 189 l 52 199 l 61 220 l 62 247 l 72 270 l 75 291 l 84 307 l 80 354 l 75 369 l 72 396 l 77 423 l 84 441 l 90 464 l 105 478 l 112 537 l 126 555 l 130 575 l 144 593 l 149 598 l 156 603 l 158 615 l 164 619 l 173 619 l 179 612 l 182 597 l 188 573 l 193 545 l 200 479 l 204 449 l 211 431 l 214 412 l 216 394 l 223 367 l 226 337 l 239 317 l 246 287 l 248 259 l 255 235 l 262 207 l 267 189 l 271 179 l 279 179 l 285 189 l 297 199 l 301 220 l 308 225 l 306 235 l 313 259 l 310 275 l 313 295 l 322 304 l 331 319 l 339 337 l 349 355 l 359 366 l 359 385 l 368 403 l 373 415 l 380 437 l 384 455 l 382 484 l 375 506 l 367 529 l 359 546 l 359 566 l 357 592 l 367 603 l 367 617 l 375 627 l 380 658 l 387 677 l 395 673 l 412 679 l 422 691 l 440 698 l 452 702 l 463 694 l 469 679 l 475 680 z m 75 22 l 66 18 l 58 22 l 61 32 l 72 30 z"},"+":{"x_min":0,"x_max":578,"ha":578,"o":"m 536 232 l 511 225 l 488 225 l 457 228 l 424 223 l 398 224 l 373 223 l 346 221 l 326 219 l 311 210 l 311 188 l 309 123 l 304 84 l 298 60 l 274 56 l 261 80 l 267 122 l 261 158 l 264 185 l 264 210 l 256 223 l 235 221 l 212 217 l 126 214 l 104 209 l 76 209 l 48 210 l 29 215 l 11 221 l 6 234 l 9 247 l 23 255 l 41 260 l 58 265 l 76 265 l 97 266 l 112 265 l 138 265 l 161 261 l 176 262 l 195 260 l 210 261 l 226 260 l 241 257 l 255 261 l 258 288 l 258 304 l 254 320 l 256 334 l 256 354 l 254 369 l 254 387 l 251 408 l 246 418 l 241 429 l 238 440 l 241 450 l 249 456 l 264 461 l 278 463 l 296 460 l 309 455 l 318 446 l 315 435 l 318 423 l 323 414 l 331 403 l 333 390 l 331 373 l 328 355 l 323 344 l 324 334 l 319 320 l 318 306 l 315 290 l 314 279 l 319 267 l 331 260 l 351 257 l 369 257 l 391 255 l 433 255 l 449 257 l 466 257 l 490 253 l 508 252 l 528 250 z m 296 22 l 291 12 l 283 8 l 274 17 l 275 32 l 289 31 z"},"G":{"x_min":0,"x_max":388,"ha":388,"o":"m 352 -12 l 349 -27 l 349 -36 l 345 -43 l 339 -48 l 330 -45 l 322 -32 l 320 -18 l 313 -11 l 312 7 l 304 33 l 293 51 l 283 72 l 278 90 l 269 116 l 267 137 l 256 153 l 244 163 l 229 155 l 215 146 l 174 137 l 158 139 l 140 140 l 105 153 l 82 163 l 80 172 l 62 180 l 58 192 l 50 200 l 43 219 l 40 236 l 39 254 l 38 282 l 39 312 l 45 337 l 43 351 l 39 375 l 38 403 l 40 429 l 49 449 l 62 477 l 75 500 l 87 514 l 94 528 l 114 549 l 127 567 l 141 581 l 155 596 l 169 604 l 188 602 l 205 610 l 238 613 l 252 624 l 278 633 l 299 629 l 313 622 l 325 610 l 331 597 l 338 588 l 340 574 l 339 567 l 334 560 l 321 550 l 306 544 l 280 544 l 264 549 l 246 554 l 227 549 l 202 536 l 182 522 l 160 507 l 156 495 l 141 485 l 128 467 l 113 445 l 103 429 l 94 405 l 85 382 l 82 356 l 82 335 l 77 312 l 72 282 l 70 257 l 77 227 l 90 206 l 104 192 l 124 185 l 149 174 l 177 169 l 197 172 l 207 172 l 215 178 l 230 195 l 241 210 l 241 243 l 244 264 l 247 288 l 253 310 l 260 321 l 257 343 l 260 352 l 265 359 l 271 366 l 279 370 l 294 369 l 310 359 l 316 340 l 321 315 l 324 294 l 331 277 l 339 255 l 339 229 l 340 206 l 336 182 l 336 154 l 335 130 l 335 97 l 336 70 l 343 40 l 345 11 l 347 -3 z"},"q":{"x_min":0,"x_max":300,"ha":300,"o":"m 234 360 l 233 355 l 226 350 l 220 357 l 227 364 z m 331 -53 l 327 -62 l 315 -83 l 306 -101 l 302 -120 l 286 -137 l 283 -155 l 275 -178 l 268 -196 l 262 -218 l 261 -236 l 260 -258 l 259 -275 l 256 -291 l 245 -305 l 244 -301 l 235 -296 l 226 -282 l 226 -268 l 222 -246 l 222 -228 l 215 -208 l 212 -177 l 210 -153 l 205 -118 l 201 -53 l 205 -34 l 205 28 l 204 44 l 196 49 l 192 52 l 185 51 l 175 45 l 165 35 l 150 26 l 125 20 l 100 21 l 87 32 l 67 35 l 58 44 l 50 58 l 44 73 l 42 88 l 36 105 l 36 157 l 37 174 l 40 182 l 36 192 l 43 207 l 44 219 l 51 234 l 60 251 l 68 267 l 76 276 l 91 284 l 103 287 l 120 289 l 143 288 l 154 291 l 169 291 l 182 290 l 193 288 l 200 289 l 204 299 l 204 309 l 203 318 l 208 322 l 210 332 l 217 337 l 224 340 l 233 339 l 240 334 l 244 328 l 242 317 l 242 305 l 237 292 l 231 279 l 256 264 l 262 253 l 269 239 l 269 230 l 262 219 l 254 204 l 234 198 l 237 174 l 237 152 l 242 133 l 242 114 l 246 97 l 244 80 l 244 49 l 249 36 l 245 26 l 248 17 l 252 -1 l 252 -19 l 247 -54 l 245 -80 l 248 -98 l 247 -111 l 252 -126 l 249 -137 l 254 -139 l 261 -137 l 271 -124 l 275 -109 l 287 -94 l 291 -80 l 302 -68 l 312 -50 l 319 -40 l 323 -40 l 329 -41 l 331 -47 z m 126 -11 l 111 -20 l 104 -35 l 104 -53 l 98 -66 l 83 -73 l 69 -53 l 70 -39 l 70 -21 l 74 -10 l 81 -3 l 91 5 l 111 11 l 125 4 z m 194 131 l 192 145 l 189 156 l 188 175 l 190 189 l 190 206 l 182 215 l 173 209 l 165 209 l 160 206 l 143 195 l 128 190 l 118 178 l 109 169 l 102 161 l 97 146 l 92 134 l 84 116 l 82 89 l 83 71 l 94 58 l 106 55 l 120 50 l 136 52 l 150 52 l 167 67 l 175 75 l 177 87 l 189 102 l 188 112 z"},"d":{"x_min":0,"x_max":337,"ha":337,"o":"m 327 595 l 322 569 l 316 532 l 306 507 l 300 482 l 293 455 l 287 423 l 287 394 l 285 366 l 286 349 l 284 322 l 282 289 l 277 266 l 281 212 l 279 189 l 278 164 l 275 135 l 272 114 l 270 95 l 268 63 l 272 34 l 277 -24 l 281 -38 l 286 -43 l 283 -55 l 275 -61 l 266 -54 l 263 -41 l 262 -26 l 257 -15 l 252 18 l 248 36 l 240 52 l 233 41 l 225 33 l 208 29 l 195 27 l 167 17 l 148 17 l 121 25 l 102 27 l 95 40 l 80 48 l 71 55 l 64 72 l 52 85 l 45 102 l 36 117 l 37 137 l 32 165 l 38 195 l 45 210 l 54 237 l 73 255 l 95 261 l 109 269 l 139 280 l 159 276 l 173 277 l 188 268 l 211 264 l 231 253 l 229 282 l 231 311 l 232 335 l 230 385 l 227 408 l 227 438 l 232 470 l 232 491 l 229 517 l 225 542 l 212 575 l 210 594 l 210 605 l 211 619 l 216 633 l 225 641 l 249 640 l 270 628 l 292 635 l 319 621 z m 131 350 l 126 324 l 117 318 l 117 310 l 120 296 l 107 290 l 96 290 l 82 300 l 80 317 l 80 327 l 84 358 l 91 371 l 109 372 l 124 364 z m 232 130 l 232 171 l 230 191 l 223 204 l 222 224 l 216 240 l 201 242 l 180 242 l 156 234 l 131 215 l 116 198 l 106 182 l 101 165 l 90 148 l 88 132 l 91 116 l 96 105 l 104 96 l 128 72 l 163 62 l 186 63 l 200 63 l 215 64 l 227 62 l 224 79 l 230 82 l 230 111 z"},"1":{"x_min":0,"x_max":315,"ha":315,"o":"m 48 605 l 42 599 l 32 597 l 24 606 l 27 615 l 38 619 l 47 613 z m 237 643 l 235 637 l 235 627 l 232 619 l 227 602 l 227 590 l 222 582 l 226 564 l 226 544 l 221 523 l 217 479 l 213 459 l 214 434 l 212 410 l 212 389 l 213 371 l 210 351 l 209 334 l 209 307 l 204 289 l 204 270 l 200 247 l 196 228 l 191 187 l 190 163 l 189 153 l 184 146 l 189 131 l 187 109 l 189 85 l 189 63 l 190 54 l 189 48 l 195 35 l 198 24 l 195 7 l 190 2 l 182 2 l 176 7 l 170 26 l 166 43 l 162 71 l 161 90 l 158 122 l 159 154 l 159 186 l 162 227 l 162 321 l 158 360 l 153 392 l 150 422 l 144 449 l 140 476 l 139 508 l 140 525 l 139 539 l 136 545 l 130 549 l 115 545 l 102 537 l 92 525 l 79 514 l 57 485 l 47 470 l 44 461 l 39 453 l 32 440 l 16 431 l 7 429 l -3 430 l -8 435 l -12 444 l -13 456 l -10 468 l -3 484 l 2 493 l 7 512 l 10 528 l 16 542 l 30 560 l 42 568 l 55 582 l 61 590 l 65 599 l 65 606 l 70 618 l 75 624 l 85 632 l 93 636 l 116 665 l 125 679 l 131 689 l 139 692 l 149 699 l 166 702 l 182 701 l 198 696 l 213 689 l 226 679 l 235 666 l 237 655 z"},"5":{"x_min":0,"x_max":427,"ha":427,"o":"m 427 561 l 420 558 l 415 562 l 419 567 l 425 569 z m 410 558 l 408 552 l 408 546 l 404 539 l 387 530 l 370 524 l 352 523 l 350 519 l 340 515 l 320 510 l 305 506 l 290 506 l 258 505 l 160 498 l 142 495 l 125 487 l 121 475 l 117 455 l 110 433 l 110 424 l 107 405 l 106 387 l 110 367 l 114 362 l 128 357 l 138 354 l 143 355 l 156 354 l 165 350 l 175 352 l 190 344 l 209 340 l 225 337 l 250 328 l 269 317 l 285 296 l 295 281 l 297 272 l 308 254 l 310 244 l 317 235 l 318 225 l 327 217 l 329 197 l 328 175 l 320 153 l 309 138 l 305 132 l 297 124 l 287 105 l 268 86 l 255 69 l 241 58 l 220 40 l 208 32 l 188 26 l 163 14 l 148 10 l 135 9 l 111 5 l 88 10 l 69 19 l 54 30 l 47 41 l 46 54 l 43 60 l 45 65 l 46 70 l 54 72 l 63 65 l 69 56 l 80 45 l 92 40 l 112 37 l 134 40 l 147 45 l 165 49 l 183 60 l 200 67 l 213 82 l 230 96 l 248 118 l 260 137 l 276 156 l 285 169 l 291 178 l 295 189 l 294 198 l 290 216 l 280 231 l 269 252 l 260 268 l 246 282 l 240 290 l 230 295 l 212 299 l 189 299 l 166 307 l 112 307 l 92 305 l 78 307 l 66 313 l 57 327 l 54 349 l 47 373 l 47 396 l 46 424 l 47 441 l 51 464 l 51 484 l 42 492 l 32 506 l 31 515 l 32 528 l 38 542 l 38 547 l 42 557 l 40 572 l 40 584 l 47 595 l 60 603 l 73 607 l 82 609 l 103 604 l 125 595 l 143 588 l 157 581 l 185 575 l 207 569 l 227 567 l 246 562 l 271 562 l 292 566 l 308 566 l 327 562 l 346 562 l 363 565 l 380 569 l 397 567 l 408 565 z"}}}
